<svg width="107" height="81" viewBox="0 0 107 81" fill="none" xmlns="http://www.w3.org/2000/svg">
<path d="M5.96875 78.0796C5.96875 78.627 10.652 79.152 18.9883 79.5391C27.3246 79.9262 38.6311 80.1436 50.4203 80.1436C62.2096 80.1436 73.5161 79.9262 81.8524 79.5391C90.1887 79.152 94.8719 78.627 94.8719 78.0796C94.8719 77.5322 90.1887 77.0072 81.8524 76.6202C73.5161 76.2331 62.2096 76.0156 50.4203 76.0156C38.6311 76.0156 27.3246 76.2331 18.9883 76.6202C10.652 77.0072 5.96875 77.5322 5.96875 78.0796Z" fill="#DCE9FF"/>
<path d="M101.242 48.8381C101.243 41.6743 99.6405 34.6012 96.5519 28.1374C93.4633 21.6736 88.967 15.9831 83.3929 11.4832C77.8187 6.98332 71.308 3.7882 64.3382 2.13216C57.3685 0.476121 50.1164 0.401158 43.1139 1.91277C36.1114 3.42438 29.536 6.48423 23.87 10.8679C18.204 15.2516 13.5911 20.8479 10.3695 27.2465C7.14797 33.6451 5.39949 40.6836 5.25232 47.8459C5.10514 55.0082 6.56301 62.1126 9.51899 68.6381H96.9702C99.7919 62.419 101.249 55.6675 101.242 48.8381Z" fill="#EFF5FF"/>
<path d="M6.44922 68.6367H100.049" stroke="#0061FE" stroke-width="1.19581" stroke-linecap="round" stroke-linejoin="round"/>
<path d="M1.04688 68.6367H4.04688" stroke="#0061FE" stroke-width="1.19581" stroke-linecap="round" stroke-linejoin="round"/>
<path d="M102.449 68.6367H105.449" stroke="#0061FE" stroke-width="1.19581" stroke-linecap="round" stroke-linejoin="round"/>
<path d="M25.6445 77.0391H26.3597" stroke="white" stroke-width="1.19581" stroke-linecap="round"/>
<path d="M97.6653 71.3584H17.0025V62.3968H9.16406V54.4348C9.16395 53.5163 9.47672 52.6251 10.0508 51.9081C10.6249 51.1912 11.4261 50.6911 12.3225 50.4904L18.0933 49.2088C18.8431 49.0418 19.5299 48.6647 20.0733 48.1216L29.2617 38.9332C30.0191 38.1757 31.0464 37.7501 32.1177 37.75H97.6653V71.3584Z" fill="white"/>
<path d="M97.6653 71.3584H17.0025V62.3968H9.16406V54.4348C9.16395 53.5163 9.47672 52.6251 10.0508 51.9081C10.6249 51.1912 11.4261 50.6911 12.3225 50.4904L18.0933 49.2088C18.8431 49.0418 19.5299 48.6647 20.0733 48.1216L29.2617 38.9332C30.0191 38.1757 31.0464 37.7501 32.1177 37.75H97.6653V71.3584Z" stroke="#0061FE" stroke-width="1.19581" stroke-linecap="round" stroke-linejoin="round"/>
<path d="M96.1669 28.7228C95.9614 27.4882 95.3249 26.3665 94.3705 25.5569C93.4161 24.7473 92.2056 24.3022 90.9541 24.3008H41.6569C40.3523 24.3008 39.0808 24.7113 38.0225 25.4742C36.9641 26.237 36.1726 27.3135 35.7601 28.5512L32.6953 37.7444H97.6705L96.1669 28.7228Z" fill="white"/>
<path d="M96.1669 28.7228C95.9614 27.4882 95.3249 26.3665 94.3705 25.5569C93.4161 24.7473 92.2056 24.3022 90.9541 24.3008H41.6569C40.3523 24.3008 39.0808 24.7113 38.0225 25.4742C36.9641 26.237 36.1726 27.3135 35.7601 28.5512L32.6953 37.7444H97.6705L96.1669 28.7228Z" stroke="#0061FE" stroke-width="1.19581" stroke-linecap="round" stroke-linejoin="round"/>
<path d="M97.6667 66.8828C98.2609 66.8828 98.8307 67.1189 99.2509 67.539C99.671 67.9592 99.9071 68.529 99.9071 69.1232C99.9071 69.7174 99.671 70.2873 99.2509 70.7074C98.8307 71.1276 98.2609 71.3636 97.6667 71.3636H23.7227V66.8828H97.6667Z" fill="white"/>
<path d="M97.6667 66.8828C98.2609 66.8828 98.8307 67.1189 99.2509 67.539C99.671 67.9592 99.9071 68.529 99.9071 69.1232C99.9071 69.7174 99.671 70.2873 99.2509 70.7074C98.8307 71.1276 98.2609 71.3636 97.6667 71.3636H23.7227V66.8828H97.6667Z" stroke="#0061FE" stroke-width="1.19581" stroke-linecap="round" stroke-linejoin="round"/>
<path d="M5.80469 65.7565C5.80469 66.6476 6.15869 67.5022 6.78881 68.1324C7.41893 68.7625 8.27356 69.1165 9.16469 69.1165H17.0043V62.3965H8.04509C7.4509 62.3965 6.88104 62.6325 6.46089 63.0527C6.04073 63.4728 5.80469 64.0427 5.80469 64.6369V65.7565Z" fill="#DCE9FF"/>
<path d="M5.80469 65.7565C5.80469 66.6476 6.15869 67.5022 6.78881 68.1324C7.41893 68.7625 8.27356 69.1165 9.16469 69.1165H17.0043V62.3965H8.04509C7.4509 62.3965 6.88104 62.6325 6.46089 63.0527C6.04073 63.4728 5.80469 64.0427 5.80469 64.6369V65.7565Z" stroke="#0061FE" stroke-width="1.19581" stroke-linecap="round" stroke-linejoin="round"/>
<path d="M9.26413 71.4848C9.42757 72.5016 9.78969 73.4762 10.3298 74.353C10.8699 75.2299 11.5774 75.9917 12.412 76.5951C13.2465 77.1985 14.1917 77.6316 15.1936 77.8697C16.1956 78.1078 17.2346 78.1462 18.2513 77.9828C19.2681 77.8194 20.2427 77.4572 21.1196 76.9171C21.9964 76.377 22.7583 75.6695 23.3616 74.835C23.965 74.0004 24.3982 73.0552 24.6363 72.0533C24.8744 71.0514 24.9128 70.0124 24.7493 68.9956C24.5859 67.9788 24.2238 67.0042 23.6837 66.1274C23.1436 65.2505 22.4361 64.4887 21.6015 63.8853C20.767 63.2819 19.8218 62.8488 18.8198 62.6107C17.8179 62.3726 16.7789 62.3341 15.7621 62.4976C14.7454 62.661 13.7707 63.0231 12.8939 63.5632C12.0171 64.1034 11.2552 64.8109 10.6518 65.6454C10.0484 66.48 9.61532 67.4252 9.37721 68.4271C9.13911 69.429 9.10069 70.468 9.26413 71.4848Z" fill="#DCE9FF"/>
<path d="M9.26413 71.4848C9.42757 72.5016 9.78969 73.4762 10.3298 74.353C10.8699 75.2299 11.5774 75.9917 12.412 76.5951C13.2465 77.1985 14.1917 77.6316 15.1936 77.8697C16.1956 78.1078 17.2346 78.1462 18.2513 77.9828C19.2681 77.8194 20.2427 77.4572 21.1196 76.9171C21.9964 76.377 22.7583 75.6695 23.3616 74.835C23.965 74.0004 24.3982 73.0552 24.6363 72.0533C24.8744 71.0514 24.9128 70.0124 24.7493 68.9956C24.5859 67.9788 24.2238 67.0042 23.6837 66.1274C23.1436 65.2505 22.4361 64.4887 21.6015 63.8853C20.767 63.2819 19.8218 62.8488 18.8198 62.6107C17.8179 62.3726 16.7789 62.3341 15.7621 62.4976C14.7454 62.661 13.7707 63.0231 12.8939 63.5632C12.0171 64.1034 11.2552 64.8109 10.6518 65.6454C10.0484 66.48 9.61532 67.4252 9.37721 68.4271C9.13911 69.429 9.10069 70.468 9.26413 71.4848V71.4848Z" stroke="#0061FE" stroke-width="1.19581" stroke-linecap="round" stroke-linejoin="round"/>
<path d="M13.6445 70.2428C13.6445 70.9074 13.8416 71.557 14.2108 72.1095C14.58 72.6621 15.1048 73.0927 15.7187 73.347C16.3327 73.6014 17.0083 73.6679 17.66 73.5382C18.3118 73.4086 18.9105 73.0886 19.3804 72.6187C19.8503 72.1488 20.1703 71.5501 20.3 70.8983C20.4296 70.2465 20.3631 69.571 20.1088 68.957C19.8545 68.343 19.4238 67.8183 18.8712 67.4491C18.3187 67.0799 17.6691 66.8828 17.0045 66.8828C16.5633 66.8828 16.1264 66.9697 15.7187 67.1386C15.3111 67.3074 14.9407 67.5549 14.6287 67.8669C14.3166 68.1789 14.0692 68.5493 13.9003 68.957C13.7314 69.3646 13.6445 69.8016 13.6445 70.2428Z" fill="white"/>
<path d="M13.6445 70.2428C13.6445 70.9074 13.8416 71.557 14.2108 72.1095C14.58 72.6621 15.1048 73.0927 15.7187 73.347C16.3327 73.6014 17.0083 73.6679 17.66 73.5382C18.3118 73.4086 18.9105 73.0886 19.3804 72.6187C19.8503 72.1488 20.1703 71.5501 20.3 70.8983C20.4296 70.2465 20.3631 69.571 20.1088 68.957C19.8545 68.343 19.4238 67.8183 18.8712 67.4491C18.3187 67.0799 17.6691 66.8828 17.0045 66.8828C16.5633 66.8828 16.1264 66.9697 15.7187 67.1386C15.3111 67.3074 14.9407 67.5549 14.6287 67.8669C14.3166 68.1789 14.0692 68.5493 13.9003 68.957C13.7314 69.3646 13.6445 69.8016 13.6445 70.2428V70.2428Z" stroke="#0061FE" stroke-width="1.19581" stroke-linecap="round" stroke-linejoin="round"/>
<path d="M72.4751 71.4848C72.8052 73.5383 73.9375 75.3765 75.6229 76.5951C77.3083 77.8137 79.4088 78.3129 81.4623 77.9828C83.5157 77.6527 85.354 76.5204 86.5726 74.835C87.7912 73.1495 88.2904 71.0491 87.9603 68.9956C87.6302 66.9421 86.4979 65.1039 84.8125 63.8853C83.127 62.6667 81.0265 62.1675 78.9731 62.4976C76.9196 62.8277 75.0814 63.96 73.8628 65.6454C72.6442 67.3308 72.145 69.4313 72.4751 71.4848Z" fill="#DCE9FF"/>
<path d="M72.4751 71.4848C72.8052 73.5383 73.9375 75.3765 75.6229 76.5951C77.3083 77.8137 79.4088 78.3129 81.4623 77.9828C83.5157 77.6527 85.354 76.5204 86.5726 74.835C87.7912 73.1495 88.2904 71.0491 87.9603 68.9956C87.6302 66.9421 86.4979 65.1039 84.8125 63.8853C83.127 62.6667 81.0265 62.1675 78.9731 62.4976C76.9196 62.8277 75.0814 63.96 73.8628 65.6454C72.6442 67.3308 72.145 69.4313 72.4751 71.4848V71.4848Z" stroke="#0061FE" stroke-width="1.19581" stroke-linecap="round" stroke-linejoin="round"/>
<path d="M76.8555 70.2401C76.8555 70.6815 76.9424 71.1186 77.1113 71.5264C77.2802 71.9342 77.5278 72.3047 77.8399 72.6168C78.1521 72.929 78.5226 73.1765 78.9304 73.3455C79.3382 73.5144 79.7753 73.6013 80.2167 73.6013C80.6581 73.6013 81.0952 73.5144 81.503 73.3455C81.9108 73.1765 82.2813 72.929 82.5934 72.6168C82.9055 72.3047 83.1531 71.9342 83.322 71.5264C83.4909 71.1186 83.5779 70.6815 83.5779 70.2401C83.5779 69.7987 83.4909 69.3616 83.322 68.9538C83.1531 68.546 82.9055 68.1755 82.5934 67.8634C82.2813 67.5513 81.9108 67.3037 81.503 67.1348C81.0952 66.9659 80.6581 66.8789 80.2167 66.8789C79.7753 66.8789 79.3382 66.9659 78.9304 67.1348C78.5226 67.3037 78.1521 67.5513 77.8399 67.8634C77.5278 68.1755 77.2802 68.546 77.1113 68.9538C76.9424 69.3616 76.8555 69.7987 76.8555 70.2401Z" fill="white"/>
<path d="M76.8555 70.2401C76.8555 70.6815 76.9424 71.1186 77.1113 71.5264C77.2802 71.9342 77.5278 72.3047 77.8399 72.6168C78.1521 72.929 78.5226 73.1765 78.9304 73.3455C79.3382 73.5144 79.7753 73.6013 80.2167 73.6013C80.6581 73.6013 81.0952 73.5144 81.503 73.3455C81.9108 73.1765 82.2813 72.929 82.5934 72.6168C82.9055 72.3047 83.1531 71.9342 83.322 71.5264C83.4909 71.1186 83.5779 70.6815 83.5779 70.2401C83.5779 69.7987 83.4909 69.3616 83.322 68.9538C83.1531 68.546 82.9055 68.1755 82.5934 67.8634C82.2813 67.5513 81.9108 67.3037 81.503 67.1348C81.0952 66.9659 80.6581 66.8789 80.2167 66.8789C79.7753 66.8789 79.3382 66.9659 78.9304 67.1348C78.5226 67.3037 78.1521 67.5513 77.8399 67.8634C77.5278 68.1755 77.2802 68.546 77.1113 68.9538C76.9424 69.3616 76.8555 69.7987 76.8555 70.2401V70.2401Z" stroke="#0061FE" stroke-width="1.19581" stroke-linecap="round" stroke-linejoin="round"/>
<path d="M38.2875 42.2305C38.582 42.2305 38.8736 42.2885 39.1456 42.4012C39.4177 42.5139 39.6648 42.6792 39.873 42.8874C40.0812 43.0957 40.2463 43.343 40.3588 43.6151C40.4714 43.8872 40.5293 44.1788 40.5291 44.4733V47.8333C40.5291 48.4275 40.2931 48.9973 39.8729 49.4175C39.4528 49.8376 38.8829 50.0737 38.2887 50.0737H28.2087C27.8415 50.0741 27.4824 49.9655 27.177 49.7616C26.8716 49.5578 26.6335 49.2679 26.4929 48.9287C26.3523 48.5895 26.3156 48.2161 26.3873 47.856C26.4591 47.4959 26.6361 47.1651 26.8959 46.9057L30.7767 43.0249C31.2843 42.5171 31.9728 42.2318 32.6907 42.2317L38.2875 42.2305Z" fill="#DCE9FF"/>
<path d="M32.689 42.2305C31.9711 42.2306 31.2826 42.5159 30.775 43.0237L26.8942 46.9045C26.635 47.1642 26.4585 47.4949 26.3871 47.8548C26.3156 48.2147 26.3525 48.5878 26.493 48.9267C26.6335 49.2657 26.8713 49.5555 27.1763 49.7594C27.4814 49.9633 27.8401 50.0723 28.207 50.0725H29.3266L37.1686 42.2305H32.689Z" fill="white"/>
<path d="M38.2912 54.5527H36.0508" stroke="#0061FE" stroke-width="1.19581" stroke-linecap="round" stroke-linejoin="round"/>
<path d="M13.6425 62.3965H9.16406V56.7949H11.4045C11.9982 56.7956 12.5675 57.0319 12.9871 57.452C13.4067 57.8721 13.6425 58.4415 13.6425 59.0353V62.3965Z" stroke="#0061FE" stroke-width="1.19581" stroke-linecap="round" stroke-linejoin="round"/>
<path d="M38.2875 42.2305C38.582 42.2305 38.8736 42.2885 39.1456 42.4012C39.4177 42.5139 39.6648 42.6792 39.873 42.8874C40.0812 43.0957 40.2463 43.343 40.3588 43.6151C40.4714 43.8872 40.5293 44.1788 40.5291 44.4733V47.8333C40.5291 48.4275 40.2931 48.9973 39.8729 49.4175C39.4528 49.8376 38.8829 50.0737 38.2887 50.0737H28.2087C27.8415 50.0741 27.4824 49.9655 27.177 49.7616C26.8716 49.5578 26.6335 49.2679 26.4929 48.9287C26.3523 48.5895 26.3156 48.2161 26.3873 47.856C26.4591 47.4959 26.6361 47.1651 26.8959 46.9057L30.7767 43.0249C31.2843 42.5171 31.9728 42.2318 32.6907 42.2317L38.2875 42.2305Z" stroke="#0061FE" stroke-width="1.19581" stroke-linecap="round" stroke-linejoin="round"/>
<path d="M87.2771 66.8834C86.6471 65.5437 85.6488 64.411 84.3989 63.6176C83.149 62.8242 81.6991 62.4029 80.2187 62.4029C78.7383 62.4029 77.2884 62.8242 76.0385 63.6176C74.7886 64.411 73.7903 65.5437 73.1603 66.8834H68.3711C69.1002 64.303 70.6518 62.0312 72.7902 60.4133C74.9285 58.7954 77.5366 57.9199 80.2181 57.9199C82.8995 57.9199 85.5077 58.7954 87.646 60.4133C89.7844 62.0312 91.336 64.303 92.0651 66.8834H87.2771Z" fill="white"/>
<path d="M87.2771 66.8834C86.6471 65.5437 85.6488 64.411 84.3989 63.6176C83.149 62.8242 81.6991 62.4029 80.2187 62.4029C78.7383 62.4029 77.2884 62.8242 76.0385 63.6176C74.7886 64.411 73.7903 65.5437 73.1603 66.8834H68.3711C69.1002 64.303 70.6518 62.0312 72.7902 60.4133C74.9285 58.7954 77.5366 57.9199 80.2181 57.9199C82.8995 57.9199 85.5077 58.7954 87.646 60.4133C89.7844 62.0312 91.336 64.303 92.0651 66.8834H87.2771Z" stroke="#0061FE" stroke-width="1.19581" stroke-linecap="round" stroke-linejoin="round"/>
<path d="M93.1875 51.1943C93.1875 52.3827 93.6596 53.5224 94.4999 54.3627C95.3402 55.203 96.4799 55.6751 97.6683 55.6751V48.9551H93.1875V51.1943Z" fill="#DCE9FF"/>
<path d="M93.1875 51.1943C93.1875 52.3827 93.6596 53.5224 94.4999 54.3627C95.3402 55.203 96.4799 55.6751 97.6683 55.6751V48.9551H93.1875V51.1943Z" stroke="#0061FE" stroke-width="1.19581" stroke-linecap="round" stroke-linejoin="round"/>
<path d="M93.1875 37.75H97.6683V43.3516H93.1875V37.75Z" fill="white"/>
<path d="M93.1875 37.75H97.6683V43.3516H93.1875V37.75Z" stroke="#0061FE" stroke-width="1.19581" stroke-linecap="round" stroke-linejoin="round"/>
<path d="M93.1875 43.3516H97.6683V48.9532H93.1875V43.3516Z" fill="white"/>
<path d="M93.1875 43.3516H97.6683V48.9532H93.1875V43.3516Z" stroke="#0061FE" stroke-width="1.19581" stroke-linecap="round" stroke-linejoin="round"/>
<path d="M56.5234 47.1665C56.3371 47.0454 56.2064 46.8555 56.1598 46.6382C56.1133 46.421 56.1547 46.1941 56.275 46.0073L57.1894 44.5937C57.3105 44.4074 57.5005 44.2767 57.7177 44.2301C57.935 44.1836 58.1618 44.225 58.3486 44.3453L60.6946 45.8633V43.0685C60.6946 42.9582 60.7163 42.849 60.7585 42.7471C60.8008 42.6451 60.8626 42.5525 60.9406 42.4745C61.0186 42.3965 61.1112 42.3347 61.2132 42.2925C61.3151 42.2502 61.4243 42.2285 61.5346 42.2285H63.2146C63.3249 42.2285 63.4341 42.2502 63.5361 42.2925C63.638 42.3347 63.7306 42.3965 63.8086 42.4745C63.8866 42.5525 63.9485 42.6451 63.9907 42.7471C64.0329 42.849 64.0546 42.9582 64.0546 43.0685V45.8633L66.4006 44.3453C66.5874 44.225 66.8142 44.1836 67.0315 44.2301C67.2488 44.2767 67.4387 44.4074 67.5598 44.5937L68.4754 46.0073C68.5956 46.1943 68.6368 46.4212 68.5901 46.6385C68.5433 46.8557 68.4123 47.0456 68.2258 47.1665L65.4658 48.9521L68.2258 50.7365C68.4126 50.8574 68.5438 51.0475 68.5906 51.2651C68.6374 51.4826 68.596 51.7099 68.4754 51.8969L67.5598 53.3105C67.4387 53.4968 67.2488 53.6275 67.0315 53.6741C66.8142 53.7207 66.5874 53.6792 66.4006 53.5589L64.0546 52.0409V54.8345C64.0546 55.0573 63.9661 55.271 63.8086 55.4285C63.651 55.586 63.4374 55.6745 63.2146 55.6745H61.5346C61.3118 55.6745 61.0982 55.586 60.9406 55.4285C60.7831 55.271 60.6946 55.0573 60.6946 54.8345V52.0409L58.3486 53.5613C58.1618 53.6816 57.935 53.7231 57.7177 53.6765C57.5005 53.6299 57.3105 53.4992 57.1894 53.3129L56.275 51.8993C56.1543 51.7124 56.1127 51.4853 56.1592 51.2677C56.2058 51.0502 56.3368 50.86 56.5234 50.7389L59.2834 48.9545L56.5234 47.1665Z" fill="#DCE9FF" stroke="#0061FE" stroke-width="1.19581" stroke-linecap="round" stroke-linejoin="round"/>
<path d="M33.4231 66.8823L36.3199 63.9807C36.729 63.5584 36.9557 62.9921 36.951 62.4042C36.9463 61.8162 36.7106 61.2536 36.2948 60.8378C35.8791 60.4221 35.3165 60.1864 34.7285 60.1817C34.1406 60.177 33.5743 60.4037 33.1519 60.8127L27.0859 66.8823H33.4231Z" fill="#DCE9FF" stroke="#0061FE" stroke-width="1.19581" stroke-linecap="round" stroke-linejoin="round"/>
<path d="M60.3126 66.8815L63.2106 63.9847C63.4186 63.7766 63.5836 63.5296 63.6961 63.2577C63.8087 62.9859 63.8666 62.6945 63.8665 62.4003C63.8664 62.106 63.8084 61.8147 63.6958 61.5429C63.5831 61.2711 63.4181 61.0241 63.21 60.8161C63.0019 60.6081 62.7548 60.4431 62.483 60.3305C62.2111 60.218 61.9198 60.1601 61.6255 60.1602C61.3313 60.1602 61.04 60.2182 60.7682 60.3309C60.4963 60.4435 60.2494 60.6086 60.0414 60.8167L53.9766 66.8815H60.3126Z" fill="#DCE9FF" stroke="#0061FE" stroke-width="1.19581" stroke-linecap="round" stroke-linejoin="round"/>
<path d="M46.8685 66.8823L49.7629 63.9807C50.1719 63.5584 50.3986 62.9921 50.3939 62.4042C50.3892 61.8162 50.1535 61.2536 49.7378 60.8378C49.322 60.4221 48.7594 60.1864 48.1714 60.1817C47.5835 60.177 47.0172 60.4037 46.5949 60.8127L40.5312 66.8823H46.8685Z" fill="#DCE9FF" stroke="#0061FE" stroke-width="1.19581" stroke-linecap="round" stroke-linejoin="round"/>
<path d="M45.0123 18.707C45.9035 18.707 46.7581 19.061 47.3882 19.6912C48.0183 20.3213 48.3723 21.1759 48.3723 22.067V24.3086H41.6523V22.0682C41.6522 21.6269 41.739 21.1898 41.9078 20.782C42.0765 20.3743 42.324 20.0037 42.636 19.6916C42.9481 19.3794 43.3185 19.1318 43.7263 18.9629C44.134 18.794 44.571 18.707 45.0123 18.707Z" fill="white"/>
<path d="M45.0123 18.707C45.9035 18.707 46.7581 19.061 47.3882 19.6912C48.0183 20.3213 48.3723 21.1759 48.3723 22.067V24.3086H41.6523V22.0682C41.6522 21.6269 41.739 21.1898 41.9078 20.782C42.0765 20.3743 42.324 20.0037 42.636 19.6916C42.9481 19.3794 43.3185 19.1318 43.7263 18.9629C44.134 18.794 44.571 18.707 45.0123 18.707Z" stroke="#0061FE" stroke-width="1.19581" stroke-linecap="round" stroke-linejoin="round"/>
<path d="M41.6523 31.0263C41.6522 31.3206 41.71 31.6121 41.8225 31.884C41.9351 32.156 42.1001 32.4031 42.3081 32.6113C42.5162 32.8195 42.7632 32.9846 43.0351 33.0973C43.307 33.2099 43.5984 33.2679 43.8927 33.2679H46.1319C46.7261 33.2679 47.296 33.0319 47.7161 32.6117C48.1363 32.1916 48.3723 31.6217 48.3723 31.0275C48.3723 30.4333 48.1363 29.8635 47.7161 29.4433C47.296 29.0232 46.7261 28.7871 46.1319 28.7871H43.8915C43.5974 28.787 43.3062 28.8448 43.0345 28.9572C42.7627 29.0697 42.5158 29.2346 42.3078 29.4426C42.0999 29.6506 41.9349 29.8975 41.8225 30.1692C41.71 30.441 41.6522 30.7322 41.6523 31.0263Z" fill="#DCE9FF"/>
<path d="M42.4707 32.7219L47.5539 29.3331C47.1602 28.9881 46.6566 28.7945 46.1331 28.7871H43.8915C43.5974 28.787 43.3062 28.8448 43.0345 28.9572C42.7627 29.0697 42.5158 29.2346 42.3078 29.4426C42.0999 29.6506 41.9349 29.8975 41.8225 30.1692C41.71 30.441 41.6522 30.7322 41.6523 31.0263C41.6553 31.3518 41.7303 31.6726 41.8718 31.9657C42.0132 32.2588 42.2178 32.5171 42.4707 32.7219Z" fill="white"/>
<path d="M41.6523 31.0275C41.6523 31.6217 41.8884 32.1916 42.3085 32.6117C42.7287 33.0319 43.2986 33.2679 43.8927 33.2679H46.1331C46.7273 33.2679 47.2972 33.0319 47.7173 32.6117C48.1375 32.1916 48.3735 31.6217 48.3735 31.0275C48.3735 30.4333 48.1375 29.8635 47.7173 29.4433C47.2972 29.0232 46.7273 28.7871 46.1331 28.7871H43.8927C43.2986 28.7871 42.7287 29.0232 42.3085 29.4433C41.8884 29.8635 41.6523 30.4333 41.6523 31.0275V31.0275Z" stroke="#0061FE" stroke-width="1.19581" stroke-linecap="round" stroke-linejoin="round"/>
<path d="M83.1016 31.0263C83.1014 31.3206 83.1592 31.6121 83.2718 31.884C83.3843 32.156 83.5493 32.4031 83.7573 32.6113C83.9654 32.8195 84.2124 32.9846 84.4843 33.0973C84.7562 33.2099 85.0476 33.2679 85.342 33.2679H87.5812C87.8754 33.2679 88.1667 33.21 88.4385 33.0974C88.7103 32.9848 88.9573 32.8198 89.1654 32.6117C89.3734 32.4037 89.5384 32.1567 89.651 31.8849C89.7636 31.6131 89.8216 31.3217 89.8216 31.0275C89.8216 30.7333 89.7636 30.442 89.651 30.1701C89.5384 29.8983 89.3734 29.6513 89.1654 29.4433C88.9573 29.2353 88.7103 29.0702 88.4385 28.9576C88.1667 28.8451 87.8754 28.7871 87.5812 28.7871H85.3408C85.0467 28.787 84.7554 28.8448 84.4837 28.9572C84.2119 29.0697 83.965 29.2346 83.7571 29.4426C83.5491 29.6506 83.3842 29.8975 83.2717 30.1692C83.1592 30.441 83.1014 30.7322 83.1016 31.0263Z" fill="#DCE9FF"/>
<path d="M83.9212 32.7219L89.0008 29.3331C88.6072 28.9879 88.1034 28.7943 87.58 28.7871H85.3408C84.7469 28.7871 84.1773 29.023 83.7574 29.443C83.3375 29.8629 83.1016 30.4324 83.1016 31.0263C83.1045 31.3519 83.1795 31.6729 83.3212 31.966C83.4629 32.2592 83.6678 32.5174 83.9212 32.7219Z" fill="white"/>
<path d="M83.1016 31.0275C83.1016 31.6217 83.3376 32.1916 83.7578 32.6117C84.1779 33.0319 84.7478 33.2679 85.342 33.2679H87.5824C88.1766 33.2679 88.7464 33.0319 89.1666 32.6117C89.5867 32.1916 89.8228 31.6217 89.8228 31.0275C89.8228 30.4333 89.5867 29.8635 89.1666 29.4433C88.7464 29.0232 88.1766 28.7871 87.5824 28.7871H85.342C84.7478 28.7871 84.1779 29.0232 83.7578 29.4433C83.3376 29.8635 83.1016 30.4333 83.1016 31.0275V31.0275Z" stroke="#0061FE" stroke-width="1.19581" stroke-linecap="round" stroke-linejoin="round"/>
</svg>
