<svg width="80" height="80" viewBox="0 0 80 80" fill="none" xmlns="http://www.w3.org/2000/svg">
<path d="M70.9981 39.7558C70.9847 31.4928 67.7148 23.5682 61.8976 17.7C56.0803 11.8318 48.1845 8.49311 39.922 8.40769C31.6595 8.32226 23.6963 11.497 17.7589 17.2437C11.8216 22.9903 8.38863 30.8457 8.20437 39.1066C8.10818 43.792 9.06199 48.4395 10.9958 52.7083H68.2003C70.0474 48.6402 71.0014 44.2235 70.9981 39.7558Z" fill="#E1F1FF"/>
<path d="M8.98315 52.7092H70.2132" stroke="#0061FE" stroke-width="1.5" stroke-linecap="round" stroke-linejoin="round"/>
<path d="M5.45068 52.7092H7.41318" stroke="#0061FE" stroke-width="1.5" stroke-linecap="round" stroke-linejoin="round"/>
<path d="M71.7832 52.7092H73.7457" stroke="#0061FE" stroke-width="1.5" stroke-linecap="round" stroke-linejoin="round"/>
<path d="M39.598 52.699H32.0408V32.6996C32.0408 32.4914 32.1235 32.2917 32.2707 32.1445C32.4179 31.9973 32.6176 31.9146 32.8258 31.9146H39.598V52.699Z" fill="white"/>
<path d="M39.598 52.699H32.0408V32.6996C32.0408 32.4914 32.1235 32.2917 32.2707 32.1445C32.4179 31.9973 32.6176 31.9146 32.8258 31.9146H39.598V52.699Z" stroke="#0061FE" stroke-width="1.5" stroke-linecap="round" stroke-linejoin="round"/>
<path d="M74.5494 40.891C74.5494 41.0769 74.5127 41.261 74.4414 41.4327C74.3702 41.6044 74.2657 41.7603 74.1341 41.8916C74.0025 42.0228 73.8463 42.1268 73.6744 42.1976C73.5025 42.2684 73.3183 42.3046 73.1324 42.304H61.3245V39.4741H73.1324C73.5082 39.4741 73.8686 39.6234 74.1344 39.8891C74.4001 40.1549 74.5494 40.5153 74.5494 40.891Z" fill="white"/>
<path d="M74.5494 40.891C74.5494 41.0769 74.5127 41.261 74.4414 41.4327C74.3702 41.6044 74.2657 41.7603 74.1341 41.8916C74.0025 42.0228 73.8463 42.1268 73.6744 42.1976C73.5025 42.2684 73.3183 42.3046 73.1324 42.304H61.3245V39.4741H73.1324C73.5082 39.4741 73.8686 39.6234 74.1344 39.8891C74.4001 40.1549 74.5494 40.5153 74.5494 40.891Z" stroke="#0061FE" stroke-width="1.5" stroke-linecap="round" stroke-linejoin="round"/>
<path d="M67.4648 52.6989H69.8261L71.7156 42.3079H69.3543L67.4648 52.6989Z" fill="white"/>
<path d="M67.4648 52.6989H69.8261L71.7156 42.3079H69.3543L67.4648 52.6989Z" stroke="#0061FE" stroke-width="1.5" stroke-linecap="round" stroke-linejoin="round"/>
<path d="M61.3246 52.6989H39.5981V18.5326C39.5981 18.3244 39.6809 18.1247 39.8281 17.9775C39.9753 17.8303 40.1749 17.7476 40.3831 17.7476H60.5396C60.7478 17.7476 60.9475 17.8303 61.0947 17.9775C61.2419 18.1247 61.3246 18.3244 61.3246 18.5326V52.6989Z" fill="white"/>
<path d="M61.3246 52.6989H39.5981V18.5326C39.5981 18.3244 39.6809 18.1247 39.8281 17.9775C39.9753 17.8303 40.1749 17.7476 40.3831 17.7476H60.5396C60.7478 17.7476 60.9475 17.8303 61.0947 17.9775C61.2419 18.1247 61.3246 18.3244 61.3246 18.5326V52.6989Z" stroke="#0061FE" stroke-width="1.5" stroke-linecap="round" stroke-linejoin="round"/>
<path d="M61.4847 30.5007H39.4388C39.2306 30.5007 39.0309 30.5834 38.8837 30.7307C38.7365 30.8779 38.6538 31.0775 38.6538 31.2857V32.077C38.6538 32.2852 38.7365 32.4849 38.8837 32.6321C39.0309 32.7793 39.2306 32.862 39.4388 32.862H61.4847C61.6929 32.862 61.8926 32.7793 62.0398 32.6321C62.187 32.4849 62.2697 32.2852 62.2697 32.077V31.2865C62.2697 31.0783 62.187 30.8787 62.0398 30.7314C61.8926 30.5842 61.6929 30.5007 61.4847 30.5007Z" fill="white" stroke="#0061FE" stroke-width="1.5" stroke-linecap="round" stroke-linejoin="round"/>
<path d="M62.269 20.1096H38.6538V18.5326C38.6538 18.3244 38.7365 18.1247 38.8837 17.9775C39.0309 17.8303 39.2306 17.7476 39.4388 17.7476H61.484C61.6922 17.7476 61.8918 17.8303 62.039 17.9775C62.1863 18.1247 62.269 18.3244 62.269 18.5326V20.1096Z" fill="white"/>
<path d="M62.269 20.1096H38.6538V18.5326C38.6538 18.3244 38.7365 18.1247 38.8837 17.9775C39.0309 17.8303 39.2306 17.7476 39.4388 17.7476H61.484C61.6922 17.7476 61.8918 17.8303 62.039 17.9775C62.1863 18.1247 62.269 18.3244 62.269 18.5326V20.1096Z" stroke="#0061FE" stroke-width="1.5" stroke-linecap="round" stroke-linejoin="round"/>
<path d="M54.5586 10.1904H46.3632C45.9468 10.1904 45.5475 10.3558 45.2531 10.6503C44.9586 10.9447 44.7932 11.344 44.7932 11.7604V19.9558C44.7932 20.3722 44.9586 20.7716 45.2531 21.066C45.5475 21.3604 45.9468 21.5258 46.3632 21.5258H54.5586C54.975 21.5258 55.3743 21.3604 55.6688 21.066C55.9632 20.7716 56.1286 20.3722 56.1286 19.9558V11.7604C56.1286 11.344 55.9632 10.9447 55.6688 10.6503C55.3743 10.3558 54.975 10.1904 54.5586 10.1904Z" fill="white"/>
<path d="M54.5586 10.1904H46.3632C45.9468 10.1904 45.5475 10.3558 45.2531 10.6503C44.9586 10.9447 44.7932 11.344 44.7932 11.7604V19.9558C44.7932 20.3722 44.9586 20.7716 45.2531 21.066C45.5475 21.3604 45.9468 21.5258 46.3632 21.5258H54.5586C54.975 21.5258 55.3743 21.3604 55.6688 21.066C55.9632 20.7716 56.1286 20.3722 56.1286 19.9558V11.7604C56.1286 11.344 55.9632 10.9447 55.6688 10.6503C55.3743 10.3558 54.975 10.1904 54.5586 10.1904Z" stroke="#0061FE" stroke-width="1.5" stroke-linecap="round" stroke-linejoin="round"/>
<path d="M53.4548 14.4411H51.8785V12.8648C51.8785 12.6566 51.7958 12.457 51.6486 12.3098C51.5014 12.1625 51.3017 12.0798 51.0935 12.0798H49.8289C49.6207 12.0798 49.421 12.1625 49.2738 12.3098C49.1266 12.457 49.0439 12.6566 49.0439 12.8648V14.4411H47.4676C47.2594 14.4411 47.0598 14.5238 46.9125 14.671C46.7653 14.8183 46.6826 15.0179 46.6826 15.2261V16.4907C46.6826 16.6989 46.7653 16.8986 46.9125 17.0458C47.0598 17.193 47.2594 17.2757 47.4676 17.2757H49.0439V18.852C49.0439 19.0602 49.1266 19.2599 49.2738 19.4071C49.421 19.5543 49.6207 19.637 49.8289 19.637H51.0935C51.3017 19.637 51.5014 19.5543 51.6486 19.4071C51.7958 19.2599 51.8785 19.0602 51.8785 18.852V17.2757H53.4548C53.663 17.2757 53.8627 17.193 54.0099 17.0458C54.1571 16.8986 54.2398 16.6989 54.2398 16.4907V15.2269C54.2398 15.0187 54.1571 14.819 54.0099 14.6718C53.8627 14.5246 53.663 14.4411 53.4548 14.4411Z" fill="#EFF5FF" stroke="#0061FE" stroke-width="1.5" stroke-linecap="round" stroke-linejoin="round"/>
<path d="M55.6569 52.6989H45.2659V43.0929C45.2659 42.8847 45.3486 42.685 45.4958 42.5378C45.643 42.3906 45.8427 42.3079 46.0509 42.3079H54.8719C55.0801 42.3079 55.2798 42.3906 55.427 42.5378C55.5742 42.685 55.6569 42.8847 55.6569 43.0929V52.6989Z" fill="#EFF5FF"/>
<path d="M55.6569 52.6989H45.2659V43.0929C45.2659 42.8847 45.3486 42.685 45.4958 42.5378C45.643 42.3906 45.8427 42.3079 46.0509 42.3079H54.8719C55.0801 42.3079 55.2798 42.3906 55.427 42.5378C55.5742 42.685 55.6569 42.8847 55.6569 43.0929V52.6989Z" stroke="#0061FE" stroke-width="1.5" stroke-linecap="round" stroke-linejoin="round"/>
<path d="M50.4617 42.3079V52.6989" stroke="#0061FE" stroke-width="1.5" stroke-linecap="round" stroke-linejoin="round"/>
<path d="M45.4251 23.8879H43.2169C43.0087 23.8879 42.809 23.9706 42.6618 24.1179C42.5146 24.2651 42.4319 24.4647 42.4319 24.6729V27.3537C42.4319 27.5619 42.5146 27.7616 42.6618 27.9088C42.809 28.056 43.0087 28.1387 43.2169 28.1387H45.4251C45.6333 28.1387 45.833 28.056 45.9802 27.9088C46.1274 27.7616 46.2101 27.5619 46.2101 27.3537V24.6729C46.2101 24.4647 46.1274 24.2651 45.9802 24.1179C45.833 23.9706 45.6333 23.8879 45.4251 23.8879Z" fill="#EFF5FF"/>
<path d="M45.4251 23.8879H43.2169C43.0087 23.8879 42.809 23.9706 42.6618 24.1179C42.5146 24.2651 42.4319 24.4647 42.4319 24.6729V27.3537C42.4319 27.5619 42.5146 27.7616 42.6618 27.9088C42.809 28.056 43.0087 28.1387 43.2169 28.1387H45.4251C45.6333 28.1387 45.833 28.056 45.9802 27.9088C46.1274 27.7616 46.2101 27.5619 46.2101 27.3537V24.6729C46.2101 24.4647 46.1274 24.2651 45.9802 24.1179C45.833 23.9706 45.6333 23.8879 45.4251 23.8879Z" stroke="#0061FE" stroke-width="1.5" stroke-linecap="round" stroke-linejoin="round"/>
<path d="M51.5655 23.8879H49.3573C49.1491 23.8879 48.9494 23.9706 48.8022 24.1179C48.655 24.2651 48.5723 24.4647 48.5723 24.6729V27.3537C48.5723 27.5619 48.655 27.7616 48.8022 27.9088C48.9494 28.056 49.1491 28.1387 49.3573 28.1387H51.5655C51.7737 28.1387 51.9733 28.056 52.1205 27.9088C52.2678 27.7616 52.3505 27.5619 52.3505 27.3537V24.6729C52.3505 24.4647 52.2678 24.2651 52.1205 24.1179C51.9733 23.9706 51.7737 23.8879 51.5655 23.8879Z" fill="#EFF5FF"/>
<path d="M51.5655 23.8879H49.3573C49.1491 23.8879 48.9494 23.9706 48.8022 24.1179C48.655 24.2651 48.5723 24.4647 48.5723 24.6729V27.3537C48.5723 27.5619 48.655 27.7616 48.8022 27.9088C48.9494 28.056 49.1491 28.1387 49.3573 28.1387H51.5655C51.7737 28.1387 51.9733 28.056 52.1205 27.9088C52.2678 27.7616 52.3505 27.5619 52.3505 27.3537V24.6729C52.3505 24.4647 52.2678 24.2651 52.1205 24.1179C51.9733 23.9706 51.7737 23.8879 51.5655 23.8879Z" stroke="#0061FE" stroke-width="1.5" stroke-linecap="round" stroke-linejoin="round"/>
<path d="M57.7056 23.8879H55.4974C55.2892 23.8879 55.0895 23.9706 54.9423 24.1179C54.7951 24.2651 54.7124 24.4647 54.7124 24.6729V27.3537C54.7124 27.5619 54.7951 27.7616 54.9423 27.9088C55.0895 28.056 55.2892 28.1387 55.4974 28.1387H57.7056C57.9138 28.1387 58.1135 28.056 58.2607 27.9088C58.4079 27.7616 58.4906 27.5619 58.4906 27.3537V24.6729C58.4906 24.4647 58.4079 24.2651 58.2607 24.1179C58.1135 23.9706 57.9138 23.8879 57.7056 23.8879Z" fill="#EFF5FF"/>
<path d="M57.7056 23.8879H55.4974C55.2892 23.8879 55.0895 23.9706 54.9423 24.1179C54.7951 24.2651 54.7124 24.4647 54.7124 24.6729V27.3537C54.7124 27.5619 54.7951 27.7616 54.9423 27.9088C55.0895 28.056 55.2892 28.1387 55.4974 28.1387H57.7056C57.9138 28.1387 58.1135 28.056 58.2607 27.9088C58.4079 27.7616 58.4906 27.5619 58.4906 27.3537V24.6729C58.4906 24.4647 58.4079 24.2651 58.2607 24.1179C58.1135 23.9706 57.9138 23.8879 57.7056 23.8879Z" stroke="#0061FE" stroke-width="1.5" stroke-linecap="round" stroke-linejoin="round"/>
<path d="M57.7056 35.2234H55.4974C55.2892 35.2234 55.0895 35.3061 54.9423 35.4533C54.7951 35.6005 54.7124 35.8002 54.7124 36.0084V38.6892C54.7124 38.8974 54.7951 39.097 54.9423 39.2442C55.0895 39.3915 55.2892 39.4742 55.4974 39.4742H57.7056C57.9138 39.4742 58.1135 39.3915 58.2607 39.2442C58.4079 39.097 58.4906 38.8974 58.4906 38.6892V36.0084C58.4906 35.8002 58.4079 35.6005 58.2607 35.4533C58.1135 35.3061 57.9138 35.2234 57.7056 35.2234Z" fill="#EFF5FF"/>
<path d="M57.7056 35.2234H55.4974C55.2892 35.2234 55.0895 35.3061 54.9423 35.4533C54.7951 35.6005 54.7124 35.8002 54.7124 36.0084V38.6892C54.7124 38.8974 54.7951 39.097 54.9423 39.2442C55.0895 39.3915 55.2892 39.4742 55.4974 39.4742H57.7056C57.9138 39.4742 58.1135 39.3915 58.2607 39.2442C58.4079 39.097 58.4906 38.8974 58.4906 38.6892V36.0084C58.4906 35.8002 58.4079 35.6005 58.2607 35.4533C58.1135 35.3061 57.9138 35.2234 57.7056 35.2234Z" stroke="#0061FE" stroke-width="1.5" stroke-linecap="round" stroke-linejoin="round"/>
<path d="M51.5655 35.2234H49.3573C49.1491 35.2234 48.9494 35.3061 48.8022 35.4533C48.655 35.6005 48.5723 35.8002 48.5723 36.0084V38.6892C48.5723 38.8974 48.655 39.097 48.8022 39.2442C48.9494 39.3915 49.1491 39.4742 49.3573 39.4742H51.5655C51.7737 39.4742 51.9733 39.3915 52.1205 39.2442C52.2678 39.097 52.3505 38.8974 52.3505 38.6892V36.0084C52.3505 35.8002 52.2678 35.6005 52.1205 35.4533C51.9733 35.3061 51.7737 35.2234 51.5655 35.2234Z" fill="#EFF5FF"/>
<path d="M51.5655 35.2234H49.3573C49.1491 35.2234 48.9494 35.3061 48.8022 35.4533C48.655 35.6005 48.5723 35.8002 48.5723 36.0084V38.6892C48.5723 38.8974 48.655 39.097 48.8022 39.2442C48.9494 39.3915 49.1491 39.4742 49.3573 39.4742H51.5655C51.7737 39.4742 51.9733 39.3915 52.1205 39.2442C52.2678 39.097 52.3505 38.8974 52.3505 38.6892V36.0084C52.3505 35.8002 52.2678 35.6005 52.1205 35.4533C51.9733 35.3061 51.7737 35.2234 51.5655 35.2234Z" stroke="#0061FE" stroke-width="1.5" stroke-linecap="round" stroke-linejoin="round"/>
<path d="M45.4251 35.2234H43.2169C43.0087 35.2234 42.809 35.3061 42.6618 35.4533C42.5146 35.6005 42.4319 35.8002 42.4319 36.0084V38.6892C42.4319 38.8974 42.5146 39.097 42.6618 39.2442C42.809 39.3915 43.0087 39.4742 43.2169 39.4742H45.4251C45.6333 39.4742 45.833 39.3915 45.9802 39.2442C46.1274 39.097 46.2101 38.8974 46.2101 38.6892V36.0084C46.2101 35.8002 46.1274 35.6005 45.9802 35.4533C45.833 35.3061 45.6333 35.2234 45.4251 35.2234Z" fill="#EFF5FF"/>
<path d="M45.4251 35.2234H43.2169C43.0087 35.2234 42.809 35.3061 42.6618 35.4533C42.5146 35.6005 42.4319 35.8002 42.4319 36.0084V38.6892C42.4319 38.8974 42.5146 39.097 42.6618 39.2442C42.809 39.3915 43.0087 39.4742 43.2169 39.4742H45.4251C45.6333 39.4742 45.833 39.3915 45.9802 39.2442C46.1274 39.097 46.2101 38.8974 46.2101 38.6892V36.0084C46.2101 35.8002 46.1274 35.6005 45.9802 35.4533C45.833 35.3061 45.6333 35.2234 45.4251 35.2234Z" stroke="#0061FE" stroke-width="1.5" stroke-linecap="round" stroke-linejoin="round"/>
<path d="M25.9563 27.9683C22.8047 27.9683 19.7821 29.2203 17.5535 31.4488C15.325 33.6774 14.073 36.6999 14.073 39.8516V44.2931C14.0871 45.9287 14.4829 47.5383 15.2287 48.9939C15.9746 50.4496 17.05 51.711 18.3693 52.6777L17.5058 60.4202C17.4892 60.5734 17.505 60.7285 17.5522 60.8753C17.5993 61.022 17.6769 61.1573 17.7797 61.2721C17.8825 61.387 18.0083 61.479 18.149 61.5421C18.2896 61.6052 18.442 61.6381 18.5962 61.6385H33.3133C33.4676 61.6382 33.62 61.6054 33.7607 61.5424C33.9014 61.4793 34.0273 61.3873 34.1301 61.2724C34.233 61.1575 34.3105 61.0222 34.3576 60.8754C34.4048 60.7286 34.4205 60.5735 34.4037 60.4202L33.5402 52.6777C34.8595 51.7111 35.935 50.4498 36.681 48.9944C37.4269 47.5389 37.8229 45.9294 37.8373 44.2939V39.8508C37.8371 36.6997 36.5853 33.6777 34.3573 31.4494C32.1293 29.221 29.1074 27.9689 25.9563 27.9683Z" fill="white"/>
<path d="M25.9563 27.9683C22.8047 27.9683 19.7821 29.2203 17.5535 31.4488C15.325 33.6774 14.073 36.6999 14.073 39.8516V44.2931C14.0871 45.9287 14.4829 47.5383 15.2287 48.9939C15.9746 50.4496 17.05 51.711 18.3693 52.6777L17.5058 60.4202C17.4892 60.5734 17.505 60.7285 17.5522 60.8753C17.5993 61.022 17.6769 61.1573 17.7797 61.2721C17.8825 61.387 18.0083 61.479 18.149 61.5421C18.2896 61.6052 18.442 61.6381 18.5962 61.6385H33.3133C33.4676 61.6382 33.62 61.6054 33.7607 61.5424C33.9014 61.4793 34.0273 61.3873 34.1301 61.2724C34.233 61.1575 34.3105 61.0222 34.3576 60.8754C34.4048 60.7286 34.4205 60.5735 34.4037 60.4202L33.5402 52.6777C34.8595 51.7111 35.935 50.4498 36.681 48.9944C37.4269 47.5389 37.8229 45.9294 37.8373 44.2939V39.8508C37.8371 36.6997 36.5853 33.6777 34.3573 31.4494C32.1293 29.221 29.1074 27.9689 25.9563 27.9683Z" stroke="#0061FE" stroke-width="1.2" stroke-linecap="round" stroke-linejoin="round"/>
<path d="M25.9562 71.6441C31.7134 71.6441 36.3803 70.907 36.3803 69.998C36.3803 69.0889 31.7134 68.3518 25.9562 68.3518C20.1991 68.3518 15.5322 69.0889 15.5322 69.998C15.5322 70.907 20.1991 71.6441 25.9562 71.6441Z" fill="#EFF5FF"/>
<path d="M23.9758 68.2403L24.2623 61.6384H18.6943V68.2403H23.9758Z" fill="#EFF5FF" stroke="#0061FE" stroke-width="1.2" stroke-linecap="round" stroke-linejoin="round"/>
<path d="M27.9369 68.2403L27.6504 61.6384H33.2184V68.2403H27.9369Z" fill="#EFF5FF" stroke="#0061FE" stroke-width="1.2" stroke-linecap="round" stroke-linejoin="round"/>
<path d="M17.8631 67.2034C17.7556 67.3691 17.6948 67.5606 17.6869 67.7579C17.6791 67.9552 17.7245 68.151 17.8185 68.3247C17.9125 68.4983 18.0515 68.6435 18.221 68.7448C18.3904 68.8462 18.5841 68.9 18.7815 68.9006H23.2984C23.4866 68.9002 23.6715 68.8515 23.8354 68.7591C23.9993 68.6667 24.1368 68.5338 24.2347 68.3731C24.3325 68.2124 24.3875 68.0293 24.3942 67.8412C24.401 67.6532 24.3594 67.4665 24.2734 67.2992C23.0739 64.985 19.2313 65.1138 17.8631 67.2034Z" fill="white" stroke="#0061FE" stroke-width="1.2" stroke-linecap="round" stroke-linejoin="round"/>
<path d="M34.0497 67.2034C34.1572 67.3691 34.2181 67.5606 34.2259 67.7579C34.2338 67.9552 34.1883 68.151 34.0943 68.3247C34.0003 68.4983 33.8613 68.6435 33.6918 68.7448C33.5224 68.8462 33.3287 68.9 33.1313 68.9006H28.6175C28.4294 68.9002 28.2445 68.8515 28.0805 68.7591C27.9166 68.6667 27.7791 68.5338 27.6813 68.3731C27.5834 68.2124 27.5285 68.0293 27.5217 67.8412C27.5149 67.6532 27.5565 67.4665 27.6426 67.2992C28.8389 64.985 32.6815 65.1138 34.0497 67.2034Z" fill="white" stroke="#0061FE" stroke-width="1.2" stroke-linecap="round" stroke-linejoin="round"/>
<path d="M18.6944 39.8516V44.2931C18.6864 45.2273 18.918 46.148 19.3669 46.9673C19.8159 47.7867 20.4673 48.4773 21.259 48.9733C21.4608 49.1147 21.6092 49.3198 21.6804 49.5557C21.7515 49.7916 21.7414 50.0446 21.6515 50.274L20.715 52.6384C20.6571 52.7852 20.5682 52.9179 20.4545 53.0273C20.3407 53.1367 20.2047 53.2203 20.0558 53.2724C19.9068 53.3246 19.7483 53.344 19.5912 53.3294C19.434 53.3148 19.2819 53.2666 19.145 53.1879C18.8773 53.0316 18.6181 52.861 18.3687 52.6769" stroke="#0061FE" stroke-width="1.2" stroke-linecap="round" stroke-linejoin="round"/>
<path d="M33.2183 39.8516V44.2931C33.2263 45.2273 32.9948 46.148 32.5458 46.9673C32.0969 47.7867 31.4455 48.4773 30.6537 48.9733C30.452 49.1147 30.3036 49.3198 30.2324 49.5557C30.1612 49.7916 30.1714 50.0446 30.2612 50.274L31.1977 52.6384C31.2557 52.7852 31.3445 52.9179 31.4583 53.0273C31.5721 53.1367 31.708 53.2203 31.857 53.2724C32.006 53.3246 32.1644 53.344 32.3216 53.3294C32.4787 53.3148 32.6309 53.2666 32.7677 53.1879C33.0354 53.0309 33.2945 52.8614 33.5441 52.6769" stroke="#0061FE" stroke-width="1.2" stroke-linecap="round" stroke-linejoin="round"/>
<path d="M22.7559 33.83L25.9563 41.8322L29.1567 33.83L25.9563 31.2693L22.7559 33.83Z" fill="white" stroke="#0061FE" stroke-width="1.5" stroke-linecap="round" stroke-linejoin="round"/>
<path d="M24.1453 37.3052L25.9563 31.2693L27.7673 37.3059L25.9563 41.8322L24.1453 37.3052Z" fill="#EFF5FF" stroke="#0061FE" stroke-width="1.2" stroke-linejoin="round"/>
<path d="M28.6355 28.2721C28.5595 28.2544 28.4918 28.2114 28.4433 28.1503C28.3949 28.0891 28.3685 28.0134 28.3686 27.9353L28.3733 25.5183H23.5566L23.5518 27.9259C23.5521 28.0061 23.525 28.084 23.4751 28.1468C23.4251 28.2096 23.3553 28.2535 23.2771 28.2713L25.9563 31.27L28.6355 28.2721Z" fill="white" stroke="#0061FE" stroke-width="1.5" stroke-linecap="round" stroke-linejoin="round"/>
<path d="M22.7559 33.8298L25.9564 31.2692L23.2795 28.2712C22.4484 28.4632 21.6407 28.7449 20.8704 29.1112L22.7559 33.8298Z" fill="white" stroke="#0061FE" stroke-width="1.2" stroke-linecap="round" stroke-linejoin="round"/>
<path d="M29.1567 33.8298L25.9563 31.2692L28.6355 28.2712C29.4667 28.4628 30.2745 28.7445 31.0447 29.1112L29.1567 33.8298Z" fill="white" stroke="#0061FE" stroke-width="1.2" stroke-linecap="round" stroke-linejoin="round"/>
<path d="M20.6748 34.5702L20.0868 37.5108C20.0657 37.6176 20.0768 37.7283 20.1188 37.8288C20.1607 37.9293 20.2315 38.015 20.3223 38.0752L25.9586 41.8322L20.8749 29.123C20.276 29.4049 19.7014 29.7361 19.1581 30.1145L17.6745 33.8173C17.6413 33.9006 17.629 33.9908 17.6387 34.0799C17.6484 34.169 17.6797 34.2544 17.7299 34.3286C17.7802 34.4029 17.8478 34.4637 17.9269 34.5058C18.0061 34.5479 18.0943 34.57 18.184 34.5702H20.6748Z" fill="white" stroke="#0061FE" stroke-width="1.2" stroke-linejoin="round"/>
<path d="M31.2379 34.5702L31.8259 37.5108C31.847 37.6176 31.8359 37.7283 31.7939 37.8288C31.752 37.9293 31.6812 38.015 31.5904 38.0752L25.9541 41.8322L31.0378 29.123C31.6367 29.4049 32.2113 29.7361 32.7546 30.1145L34.2359 33.8173C34.269 33.9006 34.2813 33.9908 34.2716 34.0799C34.262 34.169 34.2307 34.2544 34.1804 34.3286C34.1302 34.4029 34.0626 34.4637 33.9834 34.5058C33.9043 34.5479 33.816 34.57 33.7264 34.5702H31.2379Z" fill="white" stroke="#0061FE" stroke-width="1.2" stroke-linejoin="round"/>
<path d="M25.9563 61.6386V41.833" stroke="#0061FE" stroke-width="1.2" stroke-linecap="round" stroke-linejoin="round"/>
<path d="M25.9649 27.1473C27.365 27.1433 28.7272 26.6929 29.8537 25.8615C30.9802 25.0301 31.8121 23.8611 32.2285 22.5244H32.234C34.3213 22.5244 34.4484 19.2274 32.5644 19.2274V17.9047C32.5455 16.1661 31.8415 14.5052 30.6054 13.2825C29.3693 12.0598 27.7009 11.374 25.9622 11.374C24.2235 11.374 22.555 12.0598 21.3189 13.2825C20.0828 14.5052 19.3789 16.1661 19.3599 17.9047V19.225C17.476 19.225 17.6031 22.522 19.6904 22.522H19.6959C20.112 23.8602 20.9445 25.0305 22.0721 25.8625C23.1998 26.6944 24.5636 27.1446 25.9649 27.1473Z" fill="white" stroke="#0061FE" stroke-width="1.2" stroke-linecap="round" stroke-linejoin="round"/>
<path d="M23.8173 18.5647C23.5986 18.5647 23.3889 18.6516 23.2342 18.8062C23.0796 18.9609 22.9927 19.1706 22.9927 19.3893C22.9927 19.608 23.0796 19.8178 23.2342 19.9725C23.3889 20.1271 23.5986 20.214 23.8173 20.214C24.0359 20.214 24.2456 20.1271 24.4002 19.9726C24.5547 19.818 24.6416 19.6083 24.6416 19.3897C24.6416 19.1711 24.5547 18.9615 24.4002 18.8069C24.2456 18.6523 24.0359 18.5647 23.8173 18.5647Z" fill="#0061FE"/>
<path d="M28.1088 18.5647C27.9041 18.5643 27.7066 18.6401 27.5547 18.7773C27.4028 18.9145 27.3074 19.1033 27.287 19.3069C27.2667 19.5106 27.3228 19.7146 27.4445 19.8791C27.5663 20.0437 27.7449 20.1571 27.9456 20.1972C28.1463 20.2373 28.3547 20.2014 28.5304 20.0963C28.706 19.9912 28.8363 19.8245 28.8958 19.6287C28.9554 19.4329 28.9399 19.2219 28.8525 19.0368C28.765 18.8518 28.6119 18.7059 28.4228 18.6275C28.3225 18.586 28.215 18.5646 28.1064 18.5647H28.1088Z" fill="#0061FE"/>
<path d="M22.6617 21.2056C22.6617 21.3807 22.5921 21.5486 22.4683 21.6724C22.3445 21.7962 22.1766 21.8658 22.0015 21.8658C21.8264 21.8658 21.6585 21.7962 21.5347 21.6724C21.4109 21.5486 21.3413 21.3807 21.3413 21.2056C21.3413 21.0305 21.4109 20.8626 21.5347 20.7388C21.6585 20.615 21.8264 20.5454 22.0015 20.5454C22.1766 20.5454 22.3445 20.615 22.4683 20.7388C22.5921 20.8626 22.6617 21.0305 22.6617 21.2056Z" fill="#EFF5FF"/>
<path d="M30.584 21.2056C30.584 21.3807 30.5145 21.5486 30.3907 21.6724C30.2669 21.7962 30.0989 21.8658 29.9239 21.8658C29.7488 21.8658 29.5808 21.7962 29.457 21.6724C29.3332 21.5486 29.2637 21.3807 29.2637 21.2056C29.2637 21.0305 29.3332 20.8626 29.457 20.7388C29.5808 20.615 29.7488 20.5454 29.9239 20.5454C30.0989 20.5454 30.2669 20.615 30.3907 20.7388C30.5145 20.8626 30.584 21.0305 30.584 21.2056Z" fill="#EFF5FF"/>
<path d="M24.3149 23.2466C24.8033 23.5716 25.3768 23.745 25.9634 23.745C26.5501 23.745 27.1236 23.5716 27.6119 23.2466" stroke="#0061FE" stroke-width="1.2" stroke-linecap="round" stroke-linejoin="round"/>
<path d="M22.3249 15.2459C25.2192 18.0546 30.2125 17.5915 33.2183 16.5741C33.1889 14.6668 32.4103 12.8476 31.0507 11.5097C29.691 10.1717 27.8596 9.42249 25.952 9.42383C24.0445 9.42517 22.2141 10.177 20.8563 11.5168C19.4985 12.8567 18.7225 14.677 18.6958 16.5843V18.8773C18.6958 18.8773 22.3264 17.9698 22.3264 15.2459" fill="white"/>
<path d="M22.3249 15.2459C25.2192 18.0546 30.2125 17.5915 33.2183 16.5741C33.1889 14.6668 32.4103 12.8476 31.0507 11.5097C29.691 10.1717 27.8596 9.42249 25.952 9.42383C24.0445 9.42517 22.2141 10.177 20.8563 11.5168C19.4985 12.8567 18.7225 14.677 18.6958 16.5843V18.8773C18.6958 18.8773 22.3264 17.9698 22.3264 15.2459" stroke="#0061FE" stroke-width="1.2" stroke-linecap="round" stroke-linejoin="round"/>
<path d="M22.3249 15.2458C21.9897 14.9216 21.9418 14.9734 21.6694 14.5574" stroke="#0061FE" stroke-width="1.5" stroke-linecap="round" stroke-linejoin="round"/>
</svg>
