<svg width="106" height="98" viewBox="0 0 106 98" fill="none" xmlns="http://www.w3.org/2000/svg">
<path d="M101 67.4866C101.001 60.3228 99.3983 53.2496 96.3097 46.7858C93.2211 40.322 88.7248 34.6315 83.1507 30.1316C77.5765 25.6318 71.0658 22.4366 64.096 20.7806C57.1263 19.1246 49.8742 19.0496 42.8717 20.5612C35.8692 22.0728 29.2938 25.1327 23.6278 29.5163C17.9618 33.9 13.3489 39.4964 10.1273 45.8949C6.90579 52.2935 5.15731 59.332 5.01013 66.4943C4.86296 73.6566 6.32082 80.7611 9.2768 87.2866H96.7232C99.5467 81.0678 101.005 74.3163 101 67.4866Z" fill="#EFF5FF"/>
<path d="M6.19922 87.2891H99.7992" stroke="#0061FE" stroke-width="1.19581" stroke-linecap="round" stroke-linejoin="round"/>
<path d="M0.796875 87.2891H3.79688" stroke="#0061FE" stroke-width="1.19581" stroke-linecap="round" stroke-linejoin="round"/>
<path d="M102.199 87.2891H105.199" stroke="#0061FE" stroke-width="1.19581" stroke-linecap="round" stroke-linejoin="round"/>
<path d="M19.7812 96.5996H22.1812" stroke="#DCE9FF" stroke-width="1.19581" stroke-linecap="round"/>
<path d="M30.0039 96.5996H78.2643" stroke="#DCE9FF" stroke-width="1.19581" stroke-linecap="round"/>
<path d="M82.1836 96.5996H84.5836" stroke="#DCE9FF" stroke-width="1.19581" stroke-linecap="round"/>
<path d="M16.9141 39.4082H81.4105V84.8858H16.9141V39.4082Z" fill="white"/>
<path d="M16.9141 39.4082H81.4105V84.8858H16.9141V39.4082Z" stroke="#0061FE" stroke-width="1.19581" stroke-linecap="round" stroke-linejoin="round"/>
<path d="M80.5862 39.4086H17.7434C17.3059 39.4086 16.8862 39.2352 16.5763 38.9264C16.2664 38.6176 16.0914 38.1985 16.0898 37.761C16.0898 37.3225 16.2641 36.9019 16.5742 36.5917C16.8843 36.2816 17.3049 36.1074 17.7434 36.1074H80.5862C81.0248 36.1074 81.4454 36.2816 81.7555 36.5917C82.0656 36.9019 82.2398 37.3225 82.2398 37.761C82.2383 38.1985 82.0633 38.6176 81.7534 38.9264C81.4435 39.2352 81.0238 39.4086 80.5862 39.4086Z" fill="white" stroke="#0061FE" stroke-width="1.19581" stroke-linecap="round" stroke-linejoin="round"/>
<path d="M21.8789 21.2148H76.4525V36.0984H21.8789V21.2148Z" fill="white"/>
<path d="M21.8789 21.2148H76.4525V36.0984H21.8789V21.2148Z" stroke="#0061FE" stroke-width="1.19581" stroke-linecap="round" stroke-linejoin="round"/>
<path d="M65.6994 28.0142C65.7 27.7239 65.6049 27.4414 65.4287 27.2106C65.2526 26.9798 65.0052 26.8135 64.725 26.7374L63.7842 26.4818C59.0189 25.1821 54.1016 24.5235 49.1622 24.5234C44.2233 24.5227 39.3064 25.1805 34.5414 26.4794L33.5994 26.735C33.3192 26.8111 33.0718 26.9774 32.8957 27.2082C32.7195 27.439 32.6244 27.7215 32.625 28.0118V36.0974H65.6994V28.0142Z" fill="white"/>
<path d="M65.6994 28.0142C65.7 27.7239 65.6049 27.4414 65.4287 27.2106C65.2526 26.9798 65.0052 26.8135 64.725 26.7374L63.7842 26.4818C59.0189 25.1821 54.1016 24.5235 49.1622 24.5234V24.5234C44.2233 24.5227 39.3064 25.1805 34.5414 26.4794L33.5994 26.735C33.3192 26.8111 33.0718 26.9774 32.8957 27.2082C32.7195 27.439 32.6244 27.7215 32.625 28.0118V36.0974H65.6994V28.0142Z" stroke="#0061FE" stroke-width="1.19581" stroke-linecap="round" stroke-linejoin="round"/>
<path d="M75.6244 17.9082H22.7044C22.2658 17.9082 21.8452 18.0824 21.5351 18.3925C21.225 18.7026 21.0508 19.1232 21.0508 19.5618C21.0506 19.7791 21.0933 19.9942 21.1763 20.195C21.2593 20.3957 21.3811 20.5782 21.5347 20.7318C21.6883 20.8855 21.8706 21.0074 22.0713 21.0906C22.272 21.1738 22.4871 21.2166 22.7044 21.2166H75.6244C75.8416 21.2166 76.0568 21.1738 76.2575 21.0906C76.4582 21.0074 76.6405 20.8855 76.7941 20.7318C76.9477 20.5782 77.0694 20.3957 77.1525 20.195C77.2355 19.9942 77.2781 19.7791 77.278 19.5618C77.278 19.1232 77.1038 18.7026 76.7937 18.3925C76.4835 18.0824 76.063 17.9082 75.6244 17.9082Z" fill="white" stroke="#0061FE" stroke-width="1.19581" stroke-linecap="round" stroke-linejoin="round"/>
<path d="M59.9133 84.8848H38.4141V33.1648C38.4141 32.8466 38.5405 32.5414 38.7655 32.3163C38.9906 32.0913 39.2958 31.9648 39.6141 31.9648H58.7133C59.0315 31.9648 59.3367 32.0913 59.5618 32.3163C59.7868 32.5414 59.9133 32.8466 59.9133 33.1648V84.8848Z" fill="white"/>
<path d="M59.9133 84.8848H38.4141V33.1648C38.4141 32.8466 38.5405 32.5414 38.7655 32.3163C38.9906 32.0913 39.2958 31.9648 39.6141 31.9648H58.7133C59.0315 31.9648 59.3367 32.0913 59.5618 32.3163C59.7868 32.5414 59.9133 32.8466 59.9133 33.1648V84.8848Z" stroke="#0061FE" stroke-width="1.19581" stroke-linecap="round" stroke-linejoin="round"/>
<path d="M62.3936 84.8847H35.9336V68.7195C35.9336 68.4013 36.06 68.0961 36.2851 67.871C36.5101 67.646 36.8153 67.5195 37.1336 67.5195H61.1936C61.5119 67.5195 61.8171 67.646 62.0421 67.871C62.2672 68.0961 62.3936 68.4013 62.3936 68.7195V84.8847Z" fill="#DCE9FF"/>
<path d="M62.3936 84.8847H35.9336V68.7195C35.9336 68.4013 36.06 68.0961 36.2851 67.871C36.5101 67.646 36.8153 67.5195 37.1336 67.5195H61.1936C61.5119 67.5195 61.8171 67.646 62.0421 67.871C62.2672 68.0961 62.3936 68.4013 62.3936 68.7195V84.8847Z" stroke="#0061FE" stroke-width="1.19581" stroke-linecap="round" stroke-linejoin="round"/>
<path d="M49.165 27.832C47.9444 27.8321 46.7518 28.198 45.7411 28.8825C44.7304 29.567 43.9481 30.5386 43.495 31.672L43.375 31.9672V67.5208H54.9538V31.966L54.8338 31.6708C54.3806 30.5378 53.5983 29.5666 52.5879 28.8823C51.5775 28.1981 50.3853 27.8323 49.165 27.832Z" fill="#DCE9FF"/>
<path d="M54.9511 42.4948V31.966L54.8311 31.6708C54.3778 30.5376 53.5954 29.5662 52.5847 28.882C51.5741 28.1977 50.3816 27.832 49.1611 27.832C47.9406 27.832 46.7481 28.1977 45.7375 28.882C44.7268 29.5662 43.9444 30.5376 43.4911 31.6708L43.3711 31.966V54.0712L54.9511 42.4948Z" fill="white"/>
<path d="M49.165 27.832C47.9444 27.8321 46.7518 28.198 45.7411 28.8825C44.7304 29.567 43.9481 30.5386 43.495 31.672L43.375 31.9672V67.5208H54.9538V31.966L54.8338 31.6708C54.3806 30.5378 53.5983 29.5666 52.5879 28.8823C51.5775 28.1981 50.3853 27.8323 49.165 27.832V27.832Z" stroke="#0061FE" stroke-width="1.19581" stroke-linecap="round" stroke-linejoin="round"/>
<path d="M38.4108 36.0994H18.5664V33.991C18.5664 33.6728 18.6928 33.3675 18.9179 33.1425C19.1429 32.9174 19.4481 32.791 19.7664 32.791H38.4108V36.0994Z" fill="#DCE9FF" stroke="#0061FE" stroke-width="1.19581" stroke-linecap="round" stroke-linejoin="round"/>
<path d="M79.7534 36.0994H59.9102V32.791H78.5534C78.8716 32.791 79.1768 32.9174 79.4019 33.1425C79.6269 33.3675 79.7534 33.6728 79.7534 33.991V36.0994Z" fill="#DCE9FF" stroke="#0061FE" stroke-width="1.19581" stroke-linecap="round" stroke-linejoin="round"/>
<path d="M46.6797 70.8301H51.6405V75.7909H46.6797V70.8301Z" fill="#DCE9FF"/>
<path d="M46.6797 75.7921L51.6405 70.8301H46.6797V75.7921Z" fill="white"/>
<path d="M46.6797 70.8301H51.6405V75.7909H46.6797V70.8301Z" stroke="#0061FE" stroke-width="1.19581" stroke-linecap="round" stroke-linejoin="round"/>
<path d="M16.9141 65.8672H32.6245" stroke="#0061FE" stroke-width="1.19581" stroke-linecap="round" stroke-linejoin="round"/>
<path d="M81.4109 65.8672H66.5273" stroke="#0061FE" stroke-width="1.19581" stroke-linecap="round" stroke-linejoin="round"/>
<path d="M21.0508 70.8301H24.358V84.8869H21.0508V70.8301Z" fill="#DCE9FF"/>
<path d="M21.0508 79.4845L24.358 76.1773V70.8301H21.0508V79.4845Z" fill="white"/>
<path d="M21.0508 70.8301H24.358V84.8869H21.0508V70.8301Z" stroke="#0061FE" stroke-width="1.19581" stroke-linecap="round" stroke-linejoin="round"/>
<path d="M21.0508 75.7891H24.358V79.9231H21.0508V75.7891Z" stroke="#0061FE" stroke-width="1.19581" stroke-linecap="round" stroke-linejoin="round"/>
<path d="M28.4922 70.8301H31.7994V84.8869H28.4922V70.8301Z" fill="#DCE9FF"/>
<path d="M28.4922 79.4845L31.7994 76.1773V70.8301H28.4922V79.4845Z" fill="white"/>
<path d="M28.4922 70.8301H31.7994V84.8869H28.4922V70.8301Z" stroke="#0061FE" stroke-width="1.19581" stroke-linecap="round" stroke-linejoin="round"/>
<path d="M28.4922 75.7891H31.7994V79.9231H28.4922V75.7891Z" stroke="#0061FE" stroke-width="1.19581" stroke-linecap="round" stroke-linejoin="round"/>
<path d="M66.5273 70.8301H69.8345V84.8869H66.5273V70.8301Z" fill="#DCE9FF"/>
<path d="M66.5273 74.9653L69.8345 71.6569V70.8301H66.5273V74.9653Z" fill="white"/>
<path d="M66.5273 70.8301H69.8345V84.8869H66.5273V70.8301Z" stroke="#0061FE" stroke-width="1.19581" stroke-linecap="round" stroke-linejoin="round"/>
<path d="M66.5273 75.7891H69.8345V79.9231H66.5273V75.7891Z" stroke="#0061FE" stroke-width="1.19581" stroke-linecap="round" stroke-linejoin="round"/>
<path d="M73.9688 70.8301H77.276V84.8869H73.9688V70.8301Z" fill="#DCE9FF"/>
<path d="M73.9688 74.9653L77.276 71.6569V70.8301H73.9688V74.9653Z" fill="white"/>
<path d="M73.9688 70.8301H77.276V84.8869H73.9688V70.8301Z" stroke="#0061FE" stroke-width="1.19581" stroke-linecap="round" stroke-linejoin="round"/>
<path d="M73.9688 75.7891H77.276V79.9231H73.9688V75.7891Z" stroke="#0061FE" stroke-width="1.19581" stroke-linecap="round" stroke-linejoin="round"/>
<path d="M21.0508 43.543H34.2808V46.8502H21.0508V43.543Z" fill="#DCE9FF"/>
<path d="M29.32 43.543H21.0508V46.8514H26.0116L29.32 43.543Z" fill="white"/>
<path d="M21.0508 43.543H34.2808V46.8502H21.0508V43.543Z" stroke="#0061FE" stroke-width="1.19581" stroke-linecap="round" stroke-linejoin="round"/>
<path d="M25.1836 43.543H30.1444V46.8502H25.1836V43.543Z" stroke="#0061FE" stroke-width="1.19581" stroke-linecap="round" stroke-linejoin="round"/>
<path d="M21.0508 50.9844H34.2808V54.2916H21.0508V50.9844Z" fill="#DCE9FF"/>
<path d="M29.32 50.9844H21.0508V54.2916H26.0116L29.32 50.9844Z" fill="white"/>
<path d="M21.0508 50.9844H34.2808V54.2916H21.0508V50.9844Z" stroke="#0061FE" stroke-width="1.19581" stroke-linecap="round" stroke-linejoin="round"/>
<path d="M25.1836 50.9844H30.1444V54.2916H25.1836V50.9844Z" stroke="#0061FE" stroke-width="1.19581" stroke-linecap="round" stroke-linejoin="round"/>
<path d="M21.0508 58.4258H34.2808V61.733H21.0508V58.4258Z" fill="#DCE9FF"/>
<path d="M29.32 58.4258H21.0508V61.7342H26.0116L29.32 58.4258Z" fill="white"/>
<path d="M21.0508 58.4258H34.2808V61.733H21.0508V58.4258Z" stroke="#0061FE" stroke-width="1.19581" stroke-linecap="round" stroke-linejoin="round"/>
<path d="M25.1836 58.4258H30.1444V61.733H25.1836V58.4258Z" stroke="#0061FE" stroke-width="1.19581" stroke-linecap="round" stroke-linejoin="round"/>
<path d="M64.0469 43.543H77.2769V46.8502H64.0469V43.543Z" fill="#DCE9FF"/>
<path d="M72.3161 43.543H64.0469V46.8514H69.0089L72.3161 43.543Z" fill="white"/>
<path d="M64.0469 43.543H77.2769V46.8502H64.0469V43.543Z" stroke="#0061FE" stroke-width="1.19581" stroke-linecap="round" stroke-linejoin="round"/>
<path d="M68.1875 43.543H73.1483V46.8502H68.1875V43.543Z" stroke="#0061FE" stroke-width="1.19581" stroke-linecap="round" stroke-linejoin="round"/>
<path d="M64.0469 50.9844H77.2769V54.2916H64.0469V50.9844Z" fill="#DCE9FF"/>
<path d="M72.3161 50.9844H64.0469V54.2916H69.0089L72.3161 50.9844Z" fill="white"/>
<path d="M64.0469 50.9844H77.2769V54.2916H64.0469V50.9844Z" stroke="#0061FE" stroke-width="1.19581" stroke-linecap="round" stroke-linejoin="round"/>
<path d="M68.1875 50.9844H73.1483V54.2916H68.1875V50.9844Z" stroke="#0061FE" stroke-width="1.19581" stroke-linecap="round" stroke-linejoin="round"/>
<path d="M64.0469 58.4258H77.2769V61.733H64.0469V58.4258Z" fill="#DCE9FF"/>
<path d="M72.3161 58.4258H64.0469V61.7342H69.0089L72.3161 58.4258Z" fill="white"/>
<path d="M64.0469 58.4258H77.2769V61.733H64.0469V58.4258Z" stroke="#0061FE" stroke-width="1.19581" stroke-linecap="round" stroke-linejoin="round"/>
<path d="M68.1875 58.4258H73.1483V61.733H68.1875V58.4258Z" stroke="#0061FE" stroke-width="1.19581" stroke-linecap="round" stroke-linejoin="round"/>
<path d="M68.1875 50.9844H73.1483V54.2916H68.1875V50.9844Z" stroke="#0061FE" stroke-width="1.19581" stroke-linecap="round" stroke-linejoin="round"/>
<path d="M68.1875 43.543H73.1483V46.8502H68.1875V43.543Z" stroke="#0061FE" stroke-width="1.19581" stroke-linecap="round" stroke-linejoin="round"/>
<path d="M68.1875 58.4258H73.1483V61.733H68.1875V58.4258Z" stroke="#0061FE" stroke-width="1.19581" stroke-linecap="round" stroke-linejoin="round"/>
<path d="M46.6797 28.6562V31.1366V45.1934V67.5194" stroke="#0061FE" stroke-width="1.19581" stroke-linecap="round" stroke-linejoin="round"/>
<path d="M51.6445 28.6562V31.1366V45.1934V67.5194" stroke="#0061FE" stroke-width="1.19581" stroke-linecap="round" stroke-linejoin="round"/>
<path d="M43.375 61.7344H54.9514" stroke="#0061FE" stroke-width="1.19581" stroke-linecap="round" stroke-linejoin="round"/>
<path d="M43.375 46.8496H54.9514" stroke="#0061FE" stroke-width="1.19581" stroke-linecap="round" stroke-linejoin="round"/>
<path d="M43.375 54.293H54.9514" stroke="#0061FE" stroke-width="1.19581" stroke-linecap="round" stroke-linejoin="round"/>
<path d="M25.1836 32.791H30.9712V36.0982H25.1836V32.791Z" fill="#DCE9FF" stroke="#0061FE" stroke-width="1.19581" stroke-linecap="round" stroke-linejoin="round"/>
<path d="M67.3516 32.791H73.1392V36.0982H67.3516V32.791Z" fill="#DCE9FF" stroke="#0061FE" stroke-width="1.19581" stroke-linecap="round" stroke-linejoin="round"/>
<path d="M38.5781 12.1211C38.5781 14.9282 39.6932 17.6202 41.6781 19.6051C43.663 21.59 46.3551 22.7051 49.1621 22.7051C51.9692 22.7051 54.6613 21.59 56.6461 19.6051C58.631 17.6202 59.7461 14.9282 59.7461 12.1211C59.7461 9.31406 58.631 6.62198 56.6461 4.63709C54.6613 2.65221 51.9692 1.53711 49.1621 1.53711C46.3551 1.53711 43.663 2.65221 41.6781 4.63709C39.6932 6.62198 38.5781 9.31406 38.5781 12.1211Z" fill="white"/>
<path d="M53.3159 10.1965H51.0911V7.97175C51.0911 7.79639 51.0214 7.62821 50.8974 7.50421C50.7734 7.38021 50.6052 7.31055 50.4299 7.31055H47.9039C47.7285 7.31055 47.5603 7.38021 47.4363 7.50421C47.3123 7.62821 47.2427 7.79639 47.2427 7.97175V10.1965H45.0167C44.8412 10.1969 44.673 10.2668 44.5491 10.391C44.4251 10.5152 44.3555 10.6835 44.3555 10.8589V13.3789C44.3555 13.5544 44.4251 13.7227 44.5491 13.8469C44.673 13.9711 44.8412 14.041 45.0167 14.0413H47.2391V16.2661C47.2391 16.4415 47.3087 16.6097 47.4327 16.7337C47.5567 16.8577 47.7249 16.9273 47.9003 16.9273H50.4263C50.6016 16.9273 50.7698 16.8577 50.8938 16.7337C51.0178 16.6097 51.0875 16.4415 51.0875 16.2661V14.0461H53.3123C53.3992 14.0461 53.4853 14.029 53.5656 13.9957C53.6459 13.9624 53.7188 13.9136 53.7802 13.8521C53.8416 13.7905 53.8903 13.7175 53.9235 13.6371C53.9566 13.5568 53.9736 13.4707 53.9735 13.3837V10.8637C53.9743 10.7767 53.9579 10.6904 53.9252 10.6097C53.8926 10.529 53.8443 10.4556 53.7832 10.3936C53.7221 10.3316 53.6494 10.2823 53.5692 10.2485C53.489 10.2147 53.4029 10.197 53.3159 10.1965Z" fill="#DCE9FF" stroke="#0061FE" stroke-width="1.19581" stroke-linecap="round" stroke-linejoin="round"/>
<path d="M38.5781 12.1211C38.5781 14.9282 39.6932 17.6202 41.6781 19.6051C43.663 21.59 46.3551 22.7051 49.1621 22.7051C51.9692 22.7051 54.6613 21.59 56.6461 19.6051C58.631 17.6202 59.7461 14.9282 59.7461 12.1211C59.7461 9.31406 58.631 6.62198 56.6461 4.63709C54.6613 2.65221 51.9692 1.53711 49.1621 1.53711C46.3551 1.53711 43.663 2.65221 41.6781 4.63709C39.6932 6.62198 38.5781 9.31406 38.5781 12.1211V12.1211Z" stroke="#0061FE" stroke-width="1.19581" stroke-linecap="round" stroke-linejoin="round"/>
<path d="M94.9608 90.5913H65.25V81.1113C65.2498 80.004 65.3413 78.8987 65.5236 77.8065L65.79 76.2093C65.8992 75.5581 66.2357 74.9667 66.7397 74.54C67.2437 74.1134 67.8825 73.8792 68.5428 73.8789H87.1512C87.7862 73.8791 88.4022 74.0959 88.8975 74.4934C89.3927 74.8909 89.7376 75.4454 89.8752 76.0653L91.2468 82.2357L93.5544 82.8129C93.9559 82.9132 94.3124 83.1449 94.5672 83.471C94.822 83.7971 94.9606 84.199 94.9608 84.6129V90.5913Z" fill="white" stroke="#0061FE" stroke-width="1.19581" stroke-linecap="round" stroke-linejoin="round"/>
<path d="M70.8156 91.5214H65.2164C64.9777 91.5214 64.7488 91.4266 64.58 91.2578C64.4112 91.089 64.3164 90.8601 64.3164 90.6214V88.7086C64.3164 88.4699 64.4112 88.241 64.58 88.0722C64.7488 87.9034 64.9777 87.8086 65.2164 87.8086H70.8156V91.5214Z" fill="#DCE9FF" stroke="#0061FE" stroke-width="1.19581" stroke-linecap="round" stroke-linejoin="round"/>
<path d="M95.3048 91.5214H88.4648V87.8086H95.3048C95.4592 87.8086 95.6072 87.8699 95.7164 87.9791C95.8255 88.0882 95.8868 88.2362 95.8868 88.3906V90.9406C95.8865 91.0947 95.8251 91.2425 95.716 91.3514C95.6068 91.4602 95.459 91.5214 95.3048 91.5214Z" fill="#DCE9FF" stroke="#0061FE" stroke-width="1.19581" stroke-linecap="round" stroke-linejoin="round"/>
<path d="M68.0312 90.5938C68.0312 91.3325 68.3247 92.0409 68.847 92.5632C69.3693 93.0856 70.0778 93.379 70.8164 93.379C71.5551 93.379 72.2636 93.0856 72.7859 92.5632C73.3082 92.0409 73.6016 91.3325 73.6016 90.5938C73.6016 89.8551 73.3082 89.1467 72.7859 88.6244C72.2636 88.102 71.5551 87.8086 70.8164 87.8086C70.0778 87.8086 69.3693 88.102 68.847 88.6244C68.3247 89.1467 68.0312 89.8551 68.0312 90.5938Z" fill="#DCE9FF" stroke="#0061FE" stroke-width="1.19581" stroke-linecap="round" stroke-linejoin="round"/>
<path d="M85.6758 90.5938C85.6758 91.3325 85.9692 92.0409 86.4915 92.5632C87.0139 93.0856 87.7223 93.379 88.461 93.379C89.1997 93.379 89.9081 93.0856 90.4304 92.5632C90.9527 92.0409 91.2462 91.3325 91.2462 90.5938C91.2462 89.8551 90.9527 89.1467 90.4304 88.6244C89.9081 88.102 89.1997 87.8086 88.461 87.8086C87.7223 87.8086 87.0139 88.102 86.4915 88.6244C85.9692 89.1467 85.6758 89.8551 85.6758 90.5938Z" fill="#DCE9FF" stroke="#0061FE" stroke-width="1.19581" stroke-linecap="round" stroke-linejoin="round"/>
<path d="M90.0051 76.666H82.8867V81.3076H91.0359L90.0051 76.666Z" fill="#DCE9FF"/>
<path d="M82.8867 76.666V81.3076H83.6547L88.2975 76.666H82.8867Z" fill="white"/>
<path d="M90.0051 76.666H82.8867V81.3076H91.0359L90.0051 76.666Z" stroke="#0061FE" stroke-width="1.19581" stroke-linecap="round" stroke-linejoin="round"/>
<path d="M83.8173 70.1641C83.3249 70.1644 82.8527 70.3602 82.5046 70.7086C82.1565 71.0569 81.9609 71.5292 81.9609 72.0217V73.8781H85.6749V72.0217C85.6749 71.529 85.4792 71.0565 85.1309 70.7081C84.7825 70.3598 84.31 70.1641 83.8173 70.1641Z" fill="white" stroke="#0061FE" stroke-width="1.19581" stroke-linecap="round" stroke-linejoin="round"/>
<path d="M74.5312 78.5234V84.0938" stroke="#0061FE" stroke-width="1.79372" stroke-linecap="round" stroke-linejoin="round"/>
<path d="M71.75 81.3086H77.3204" stroke="#0061FE" stroke-width="1.79372" stroke-linecap="round" stroke-linejoin="round"/>
<path d="M43.375 70.8301H46.6822V75.7909H43.375V70.8301Z" fill="#DCE9FF"/>
<path d="M46.6822 71.6569V70.8301H43.375V74.9653L46.6822 71.6569Z" fill="white"/>
<path d="M43.375 70.8301H46.6822V75.7909H43.375V70.8301Z" stroke="#0061FE" stroke-width="1.19581" stroke-linecap="round" stroke-linejoin="round"/>
<path d="M51.6445 70.8301H54.9517V75.7909H51.6445V70.8301Z" fill="#DCE9FF"/>
<path d="M54.9529 71.6569V70.8301H51.6445V74.9653L54.9529 71.6569Z" fill="white"/>
<path d="M51.6445 70.8301H54.9517V75.7909H51.6445V70.8301Z" stroke="#0061FE" stroke-width="1.19581" stroke-linecap="round" stroke-linejoin="round"/>
<path d="M56.6027 76.6171C54.4317 75.0547 51.8369 74.1896 49.1627 74.1367C46.4885 74.1898 43.8937 75.0549 41.7227 76.6171V84.8851H56.6027V76.6171Z" fill="white" stroke="#0061FE" stroke-width="1.19581" stroke-linecap="round" stroke-linejoin="round"/>
<path d="M49.1627 79.0977H46.4555C46.2963 79.0977 46.1437 79.1609 46.0312 79.2734C45.9187 79.3859 45.8555 79.5385 45.8555 79.6977V84.8853H49.1627V79.0977Z" fill="#DCE9FF"/>
<path d="M49.1639 80.3385V79.0977H46.5167C46.3413 79.0977 46.1731 79.1673 46.0491 79.2913C45.9251 79.4153 45.8555 79.5835 45.8555 79.7589V83.6457L49.1639 80.3385Z" fill="white"/>
<path d="M49.1627 79.0977H46.4555C46.2963 79.0977 46.1437 79.1609 46.0312 79.2734C45.9187 79.3859 45.8555 79.5385 45.8555 79.6977V84.8853H49.1627V79.0977Z" stroke="#0061FE" stroke-width="1.19581" stroke-linecap="round" stroke-linejoin="round"/>
<path d="M51.8725 79.0977H49.1641V84.8853H52.4725V79.6977C52.4725 79.5385 52.4092 79.3859 52.2967 79.2734C52.1842 79.1609 52.0316 79.0977 51.8725 79.0977Z" fill="#DCE9FF"/>
<path d="M52.4725 80.3373V79.7589C52.4721 79.5834 52.4022 79.4152 52.278 79.2912C52.1538 79.1673 51.9855 79.0977 51.8101 79.0977H49.1641V83.6457L52.4725 80.3373Z" fill="white"/>
<path d="M51.8725 79.0977H49.1641V84.8853H52.4725V79.6977C52.4725 79.5385 52.4092 79.3859 52.2967 79.2734C52.1842 79.1609 52.0316 79.0977 51.8725 79.0977Z" stroke="#0061FE" stroke-width="1.19581" stroke-linecap="round" stroke-linejoin="round"/>
</svg>
