<svg width="106" height="106" viewBox="0 0 106 106" fill="none" xmlns="http://www.w3.org/2000/svg">
<path d="M101 55.8694C101.001 48.7056 99.3983 41.6324 96.3097 35.1686C93.2211 28.7048 88.7248 23.0143 83.1507 18.5144C77.5765 14.0146 71.0658 10.8194 64.096 9.16341C57.1263 7.50737 49.8742 7.43241 42.8717 8.94402C35.8692 10.4556 29.2938 13.5155 23.6278 17.8992C17.9618 22.2828 13.3489 27.8792 10.1273 34.2778C6.90579 40.6763 5.15731 47.7149 5.01013 54.8772C4.86296 62.0395 6.32082 69.1439 9.2768 75.6694H96.7232C99.5466 69.4506 101.005 62.6991 101 55.8694Z" fill="#EFF5FF"/>
<path d="M6.19922 75.668H99.7992" stroke="#0061FE" stroke-width="1.19581" stroke-linecap="round" stroke-linejoin="round"/>
<path d="M0.796875 75.668H3.79688" stroke="#0061FE" stroke-width="1.19581" stroke-linecap="round" stroke-linejoin="round"/>
<path d="M102.199 75.668H105.199" stroke="#0061FE" stroke-width="1.19581" stroke-linecap="round" stroke-linejoin="round"/>
<path d="M87.9643 11.4255H81.9931V5.45435C81.9932 5.06223 81.9161 4.67392 81.7661 4.31162C81.6161 3.94932 81.3962 3.62013 81.119 3.34286C80.8417 3.06559 80.5125 2.84568 80.1502 2.69569C79.7879 2.54571 79.3996 2.46859 79.0075 2.46875H74.2339C73.8417 2.46859 73.4534 2.54571 73.0911 2.69569C72.7288 2.84568 72.3996 3.06559 72.1224 3.34286C71.8451 3.62013 71.6252 3.94932 71.4752 4.31162C71.3252 4.67392 71.2481 5.06223 71.2483 5.45435V11.4255H65.2747C64.8825 11.4254 64.4942 11.5025 64.1319 11.6525C63.7696 11.8025 63.4404 12.0224 63.1632 12.2997C62.8859 12.5769 62.666 12.9061 62.516 13.2684C62.366 13.6307 62.2889 14.019 62.2891 14.4111V19.1872C62.2889 19.5793 62.366 19.9676 62.516 20.3299C62.666 20.6922 62.8859 21.0214 63.1632 21.2986C63.4404 21.5759 63.7696 21.7958 64.1319 21.9458C64.4942 22.0958 64.8825 22.1729 65.2747 22.1727H71.2459V28.1439C71.2457 28.5363 71.3229 28.9248 71.473 29.2872C71.6232 29.6497 71.8433 29.979 72.1208 30.2563C72.3983 30.5336 72.7278 30.7535 73.0904 30.9033C73.453 31.0531 73.8415 31.13 74.2339 31.1295H79.0099C79.8017 31.1295 80.5611 30.815 81.121 30.2551C81.6809 29.6952 81.9955 28.9358 81.9955 28.1439V22.1727H87.9667C88.3587 22.1727 88.747 22.0955 89.1092 21.9455C89.4714 21.7954 89.8006 21.5755 90.0778 21.2983C90.355 21.021 90.575 20.6919 90.725 20.3297C90.875 19.9675 90.9523 19.5792 90.9523 19.1872V14.4111C90.9524 14.0188 90.8752 13.6303 90.7251 13.2679C90.575 12.9054 90.3548 12.5761 90.0773 12.2988C89.7998 12.0215 89.4703 11.8016 89.1077 11.6518C88.7452 11.502 88.3566 11.4251 87.9643 11.4255Z" fill="white"/>
<path d="M87.9643 11.4255H81.9931V5.45435C81.9932 5.06223 81.9161 4.67392 81.7661 4.31162C81.6161 3.94932 81.3962 3.62013 81.119 3.34286C80.8417 3.06559 80.5125 2.84568 80.1502 2.69569C79.7879 2.54571 79.3996 2.46859 79.0075 2.46875H74.2339C73.8417 2.46859 73.4534 2.54571 73.0911 2.69569C72.7288 2.84568 72.3996 3.06559 72.1224 3.34286C71.8451 3.62013 71.6252 3.94932 71.4752 4.31162C71.3252 4.67392 71.2481 5.06223 71.2483 5.45435V11.4255H65.2747C64.8825 11.4254 64.4942 11.5025 64.1319 11.6525C63.7696 11.8025 63.4404 12.0224 63.1632 12.2997C62.8859 12.5769 62.666 12.9061 62.516 13.2684C62.366 13.6307 62.2889 14.019 62.2891 14.4111V19.1872C62.2889 19.5793 62.366 19.9676 62.516 20.3299C62.666 20.6922 62.8859 21.0214 63.1632 21.2986C63.4404 21.5759 63.7696 21.7958 64.1319 21.9458C64.4942 22.0958 64.8825 22.1729 65.2747 22.1727H71.2459V28.1439C71.2457 28.5363 71.3229 28.9248 71.473 29.2872C71.6232 29.6497 71.8433 29.979 72.1208 30.2563C72.3983 30.5336 72.7278 30.7535 73.0904 30.9033C73.453 31.0531 73.8415 31.13 74.2339 31.1295H79.0099C79.8017 31.1295 80.5611 30.815 81.121 30.2551C81.6809 29.6952 81.9955 28.9358 81.9955 28.1439V22.1727H87.9667C88.3587 22.1727 88.747 22.0955 89.1092 21.9455C89.4714 21.7954 89.8006 21.5755 90.0778 21.2983C90.355 21.021 90.575 20.6919 90.725 20.3297C90.875 19.9675 90.9523 19.5792 90.9523 19.1872V14.4111C90.9524 14.0188 90.8752 13.6303 90.7251 13.2679C90.575 12.9054 90.3548 12.5761 90.0773 12.2988C89.7998 12.0215 89.4703 11.8016 89.1077 11.6518C88.7452 11.502 88.3566 11.4251 87.9643 11.4255V11.4255Z" stroke="#0061FE" stroke-width="1.19581" stroke-linecap="round" stroke-linejoin="round"/>
<path d="M55.5217 45.6268L41.3113 31.4212C41.0318 31.1416 40.6999 30.9197 40.3346 30.7683C39.9694 30.617 39.5779 30.5391 39.1825 30.5391C38.7871 30.5391 38.3956 30.617 38.0303 30.7683C37.665 30.9197 37.3332 31.1416 37.0537 31.4212C36.489 31.9861 36.1719 32.752 36.1719 33.5506C36.1719 34.3493 36.489 35.1152 37.0537 35.68L52.9909 51.6172V51.6484H93.6409C94.4394 51.6484 95.2052 51.3312 95.7698 50.7666C96.3344 50.202 96.6517 49.4362 96.6517 48.6376C96.6517 47.8391 96.3344 47.0733 95.7698 46.5087C95.2052 45.9441 94.4394 45.6268 93.6409 45.6268H55.5217Z" fill="#DCE9FF"/>
<path d="M55.5217 45.6268L41.3113 31.4212C41.0318 31.1416 40.6999 30.9197 40.3346 30.7683C39.9694 30.617 39.5779 30.5391 39.1825 30.5391C38.7871 30.5391 38.3956 30.617 38.0303 30.7683C37.665 30.9197 37.3332 31.1416 37.0537 31.4212C36.489 31.9861 36.1719 32.752 36.1719 33.5506C36.1719 34.3493 36.489 35.1152 37.0537 35.68L52.9909 51.6172V51.6484H93.6409C94.4394 51.6484 95.2052 51.3312 95.7698 50.7666C96.3344 50.202 96.6517 49.4362 96.6517 48.6376C96.6517 47.8391 96.3344 47.0733 95.7698 46.5087C95.2052 45.9441 94.4394 45.6268 93.6409 45.6268H55.5217Z" stroke="#0061FE" stroke-width="1.19581" stroke-linecap="round" stroke-linejoin="round"/>
<path d="M43.5078 33.6328L46.7017 30.439L58.6549 42.3922L55.461 45.586L43.5078 33.6328Z" fill="#DCE9FF" stroke="#0061FE" stroke-width="1.19581" stroke-linecap="round" stroke-linejoin="round"/>
<path d="M88.2688 64.2523H48.2848C48.1063 64.2743 47.9251 64.2582 47.7533 64.205C47.5815 64.1518 47.4229 64.0626 47.2881 63.9435C47.1534 63.8244 47.0454 63.678 46.9715 63.514C46.8976 63.35 46.8594 63.1721 46.8594 62.9923C46.8594 62.8124 46.8976 62.6345 46.9715 62.4706C47.0454 62.3066 47.1534 62.1601 47.2881 62.041C47.4229 61.9219 47.5815 61.8327 47.7533 61.7795C47.9251 61.7263 48.1063 61.7102 48.2848 61.7323H88.2688C88.4473 61.7102 88.6285 61.7263 88.8003 61.7795C88.9722 61.8327 89.1307 61.9219 89.2655 62.041C89.4003 62.1601 89.5082 62.3066 89.5821 62.4706C89.656 62.6345 89.6942 62.8124 89.6942 62.9923C89.6942 63.1721 89.656 63.35 89.5821 63.514C89.5082 63.678 89.4003 63.8244 89.2655 63.9435C89.1307 64.0626 88.9722 64.1518 88.8003 64.205C88.6285 64.2582 88.4473 64.2743 88.2688 64.2523Z" fill="white" stroke="#0061FE" stroke-width="1.19581" stroke-linecap="round" stroke-linejoin="round"/>
<path d="M45.5938 55.4336H49.3737V70.5536H45.5938V55.4336Z" fill="white"/>
<path d="M87.1758 55.4336H90.9558V70.5536H87.1758V55.4336Z" fill="white"/>
<path d="M45.5938 55.4336H49.3737V70.5536H45.5938V55.4336Z" stroke="#0061FE" stroke-width="1.19581" stroke-linecap="round" stroke-linejoin="round"/>
<path d="M87.1758 55.4336H90.9558V70.5536H87.1758V55.4336Z" stroke="#0061FE" stroke-width="1.19581" stroke-linecap="round" stroke-linejoin="round"/>
<path d="M39.293 51.0234H97.253V56.0634H39.293V51.0234Z" fill="white" stroke="#0061FE" stroke-width="1.19581" stroke-linecap="round" stroke-linejoin="round"/>
<path d="M84.6522 44.0664H54.4122C52.9089 44.068 51.4676 44.6659 50.4046 45.7289C49.3417 46.7918 48.7438 48.2331 48.7422 49.7364V56.0364C48.7431 56.537 48.9427 57.0168 49.297 57.3705C49.6514 57.7242 50.1315 57.9228 50.6322 57.9228H88.4322C88.9334 57.9228 89.4142 57.7237 89.7686 57.3692C90.1231 57.0148 90.3222 56.5341 90.3222 56.0328V49.7328C90.3196 48.2301 89.7213 46.7898 88.6585 45.7276C87.5956 44.6654 86.1549 44.068 84.6522 44.0664ZM71.4222 47.8428H77.7222V54.1428H71.4222V47.8428ZM67.6422 54.1428H61.3422V47.8428H67.6422V54.1428ZM52.5222 49.7328C52.5228 49.2317 52.7221 48.7514 53.0765 48.3971C53.4308 48.0428 53.9111 47.8434 54.4122 47.8428H57.5622V54.1428H52.5222V49.7328ZM86.5422 54.1428H81.5022V47.8428H84.6522C85.1533 47.8431 85.6339 48.0423 85.9883 48.3967C86.3426 48.7511 86.5419 49.2316 86.5422 49.7328V54.1428Z" fill="white"/>
<path d="M84.6522 44.0664H54.4122C52.9089 44.068 51.4676 44.6659 50.4046 45.7289C49.3417 46.7918 48.7438 48.2331 48.7422 49.7364V56.0364C48.7431 56.537 48.9427 57.0168 49.297 57.3705C49.6514 57.7242 50.1315 57.9228 50.6322 57.9228H88.4322C88.9334 57.9228 89.4142 57.7237 89.7686 57.3692C90.1231 57.0148 90.3222 56.5341 90.3222 56.0328V49.7328C90.3197 48.2301 89.7213 46.7898 88.6585 45.7276C87.5956 44.6654 86.1549 44.068 84.6522 44.0664V44.0664ZM71.4222 47.8428H77.7222V54.1428H71.4222V47.8428ZM67.6422 54.1428H61.3422V47.8428H67.6422V54.1428ZM52.5222 49.7328C52.5228 49.2317 52.7221 48.7514 53.0765 48.3971C53.4308 48.0428 53.9111 47.8434 54.4122 47.8428H57.5622V54.1428H52.5222V49.7328ZM86.5422 54.1428H81.5022V47.8428H84.6522C85.1533 47.8431 85.6339 48.0423 85.9883 48.3967C86.3426 48.7511 86.5419 49.2316 86.5422 49.7328V54.1428Z" stroke="#0061FE" stroke-width="1.19581" stroke-linecap="round" stroke-linejoin="round"/>
<path d="M43.0703 72.4432C43.0703 73.6128 43.5349 74.7345 44.362 75.5615C45.189 76.3886 46.3107 76.8532 47.4803 76.8532C48.6499 76.8532 49.7716 76.3886 50.5987 75.5615C51.4257 74.7345 51.8903 73.6128 51.8903 72.4432C51.8903 71.2736 51.4257 70.1519 50.5987 69.3249C49.7716 68.4978 48.6499 68.0332 47.4803 68.0332C46.3107 68.0332 45.189 68.4978 44.362 69.3249C43.5349 70.1519 43.0703 71.2736 43.0703 72.4432Z" fill="#DCE9FF"/>
<path d="M45.5938 72.4427C45.5938 72.944 45.7929 73.4247 46.1473 73.7792C46.5018 74.1336 46.9825 74.3327 47.4837 74.3327C47.985 74.3327 48.4657 74.1336 48.8202 73.7792C49.1746 73.4247 49.3737 72.944 49.3737 72.4427C49.3737 71.9415 49.1746 71.4607 48.8202 71.1063C48.4657 70.7519 47.985 70.5527 47.4837 70.5527C46.9825 70.5527 46.5018 70.7519 46.1473 71.1063C45.7929 71.4607 45.5938 71.9415 45.5938 72.4427Z" fill="white"/>
<path d="M43.0703 72.4432C43.0703 73.6128 43.5349 74.7345 44.362 75.5615C45.189 76.3886 46.3107 76.8532 47.4803 76.8532C48.6499 76.8532 49.7716 76.3886 50.5987 75.5615C51.4257 74.7345 51.8903 73.6128 51.8903 72.4432C51.8903 71.2736 51.4257 70.1519 50.5987 69.3249C49.7716 68.4978 48.6499 68.0332 47.4803 68.0332C46.3107 68.0332 45.189 68.4978 44.362 69.3249C43.5349 70.1519 43.0703 71.2736 43.0703 72.4432V72.4432Z" stroke="#0061FE" stroke-width="1.19581" stroke-linecap="round" stroke-linejoin="round"/>
<path d="M84.6484 72.4432C84.6484 73.6128 85.1131 74.7345 85.9401 75.5615C86.7671 76.3886 87.8888 76.8532 89.0584 76.8532C90.228 76.8532 91.3497 76.3886 92.1768 75.5615C93.0038 74.7345 93.4684 73.6128 93.4684 72.4432C93.4684 71.2736 93.0038 70.1519 92.1768 69.3249C91.3497 68.4978 90.228 68.0332 89.0584 68.0332C87.8888 68.0332 86.7671 68.4978 85.9401 69.3249C85.1131 70.1519 84.6484 71.2736 84.6484 72.4432Z" fill="#DCE9FF"/>
<path d="M87.1758 72.4427C87.1758 72.6909 87.2247 72.9367 87.3196 73.166C87.4146 73.3953 87.5538 73.6037 87.7293 73.7792C87.9048 73.9547 88.1132 74.0939 88.3425 74.1889C88.5718 74.2839 88.8176 74.3327 89.0658 74.3327C89.314 74.3327 89.5597 74.2839 89.7891 74.1889C90.0184 74.0939 90.2267 73.9547 90.4022 73.7792C90.5777 73.6037 90.7169 73.3953 90.8119 73.166C90.9069 72.9367 90.9558 72.6909 90.9558 72.4427C90.9558 72.1945 90.9069 71.9488 90.8119 71.7195C90.7169 71.4902 90.5777 71.2818 90.4022 71.1063C90.2267 70.9308 90.0184 70.7916 89.7891 70.6966C89.5597 70.6016 89.314 70.5527 89.0658 70.5527C88.8176 70.5527 88.5718 70.6016 88.3425 70.6966C88.1132 70.7916 87.9048 70.9308 87.7293 71.1063C87.5538 71.2818 87.4146 71.4902 87.3196 71.7195C87.2247 71.9488 87.1758 72.1945 87.1758 72.4427Z" fill="white"/>
<path d="M84.6484 72.4432C84.6484 73.6128 85.1131 74.7345 85.9401 75.5615C86.7671 76.3886 87.8888 76.8532 89.0584 76.8532C90.228 76.8532 91.3497 76.3886 92.1768 75.5615C93.0038 74.7345 93.4684 73.6128 93.4684 72.4432C93.4684 71.2736 93.0038 70.1519 92.1768 69.3249C91.3497 68.4978 90.228 68.0332 89.0584 68.0332C87.8888 68.0332 86.7671 68.4978 85.9401 69.3249C85.1131 70.1519 84.6484 71.2736 84.6484 72.4432Z" stroke="#0061FE" stroke-width="1.19581" stroke-linecap="round" stroke-linejoin="round"/>
<path d="M5.72656 102.365C5.72656 103.103 7.68152 103.811 11.1614 104.333C14.6412 104.854 19.3609 105.148 24.2822 105.148C29.2034 105.148 33.9231 104.854 37.403 104.333C40.8828 103.811 42.8378 103.103 42.8378 102.365C42.8378 101.627 40.8828 100.919 37.403 100.397C33.9231 99.8752 29.2034 99.582 24.2822 99.582C19.3609 99.582 14.6412 99.8752 11.1614 100.397C7.68152 100.919 5.72656 101.627 5.72656 102.365Z" fill="#DCE9FF"/>
<path d="M30.4023 73.0562C30.4023 74.0947 30.8149 75.0907 31.5492 75.825C32.2835 76.5593 33.2795 76.9718 34.3179 76.9718C35.3564 76.9718 36.3524 76.5593 37.0867 75.825C37.821 75.0907 38.2335 74.0947 38.2335 73.0562V69.1406H30.4023V73.0562Z" fill="white" stroke="#0061FE" stroke-width="1.19581" stroke-linecap="round" stroke-linejoin="round"/>
<path d="M38.2374 49.0015C38.2374 44.551 36.4694 40.2827 33.3224 37.1357C30.1754 33.9887 25.9071 32.2207 21.4566 32.2207C17.006 32.2207 12.7378 33.9887 9.59076 37.1357C6.44375 40.2827 4.67578 44.551 4.67578 49.0015V51.2395L12.4614 69.0331H38.2374V49.0015Z" fill="#DCE9FF"/>
<path d="M26.0023 32.8422C25.7469 32.7701 25.5226 32.6153 25.3645 32.402C25.2064 32.1888 25.1235 31.9292 25.1287 31.6638L25.2355 26.2026L18.2827 26.0742L18.1747 31.6026C18.1698 31.8667 18.0779 32.1219 17.9132 32.3284C17.7486 32.535 17.5203 32.6814 17.2639 32.745C17.0311 32.8026 16.8019 32.865 16.5739 32.9334C16.069 33.0879 15.5724 33.2681 15.0859 33.4734L25.0927 39.0294L28.4527 33.7494C27.6617 33.3815 26.8422 33.0781 26.0023 32.8422Z" fill="white" stroke="#0061FE" stroke-width="1.20657" stroke-linecap="round" stroke-linejoin="round"/>
<path d="M14.7445 99.3472H30.4069L32.6449 69.1408H38.2381V69.0352H12.4609L12.5077 69.1408L14.7445 99.3472Z" fill="#DCE9FF" stroke="#0061FE" stroke-width="1.19581" stroke-linecap="round" stroke-linejoin="round"/>
<path d="M20.2953 41.4343V81.0343C20.2953 81.6708 20.0425 82.2813 19.5924 82.7313C19.1423 83.1814 18.5318 83.4343 17.8953 83.4343H7.09531C6.45879 83.4343 5.84834 83.1814 5.39826 82.7313C4.94817 82.2813 4.69531 81.6708 4.69531 81.0343V48.5743C4.77836 45.2105 5.87092 41.9495 7.83111 39.2146C9.7913 36.4798 12.5285 34.3975 15.6873 33.2383C17.0953 34.0929 18.2592 35.2962 19.0663 36.7319C19.8735 38.1676 20.2968 39.7872 20.2953 41.4343Z" fill="white"/>
<path d="M20.2953 41.4343V81.0343C20.2953 81.6708 20.0425 82.2813 19.5924 82.7313C19.1423 83.1814 18.5318 83.4343 17.8953 83.4343H7.09531C6.45879 83.4343 5.84834 83.1814 5.39826 82.7313C4.94817 82.2813 4.69531 81.6708 4.69531 81.0343V48.5743C4.77836 45.2105 5.87092 41.9495 7.83111 39.2146C9.7913 36.4798 12.5285 34.3975 15.6873 33.2383C17.0953 34.0929 18.2592 35.2962 19.0663 36.7319C19.8735 38.1676 20.2968 39.7872 20.2953 41.4343V41.4343Z" stroke="#0061FE" stroke-width="1.19581" stroke-linecap="round" stroke-linejoin="round"/>
<path d="M20.2933 41.4343V63.2383L14.2933 49.2343L17.2933 43.2343H13.9045C13.5887 43.2343 13.2856 43.1099 13.061 42.8879C12.8364 42.666 12.7083 42.3644 12.7045 42.0487L12.6133 34.7503C12.7518 34.6536 12.8961 34.5655 13.0453 34.4863C13.8857 33.9912 14.7693 33.5734 15.6853 33.2383C17.0933 34.0929 18.2571 35.2962 19.0643 36.7319C19.8715 38.1676 20.2948 39.7872 20.2933 41.4343V41.4343Z" stroke="#0061FE" stroke-width="1.19581" stroke-linecap="round" stroke-linejoin="round"/>
<path d="M38.2345 49.0052V69.1412H34.6945V81.0332C34.6945 81.6697 34.4417 82.2802 33.9916 82.7302C33.5415 83.1803 32.9311 83.4332 32.2945 83.4332H31.6945V41.4332C31.6949 39.7477 31.2515 38.0918 30.4089 36.632C29.5663 35.1722 28.3542 33.9599 26.8945 33.1172C30.2024 34.2571 33.0724 36.4002 35.105 39.248C37.1375 42.0957 38.2315 45.5064 38.2345 49.0052Z" fill="white"/>
<path d="M38.2345 49.0052V69.1412H34.6945V81.0332C34.6945 81.6697 34.4417 82.2802 33.9916 82.7302C33.5415 83.1803 32.9311 83.4332 32.2945 83.4332H31.6945V41.4332C31.6949 39.7477 31.2515 38.0918 30.4089 36.632C29.5663 35.1722 28.3542 33.9599 26.8945 33.1172C30.2024 34.2571 33.0724 36.4002 35.105 39.248C37.1375 42.0957 38.2315 45.5064 38.2345 49.0052V49.0052Z" stroke="#0061FE" stroke-width="1.19581" stroke-linecap="round" stroke-linejoin="round"/>
<path d="M31.6914 60.0344L35.8914 48.6344L34.0914 43.2344H37.0914" stroke="#0061FE" stroke-width="1.19581" stroke-linecap="round" stroke-linejoin="round"/>
<path d="M22.5742 75.2402V100.464V75.2402Z" fill="#8B8B8B"/>
<path d="M22.5742 75.2402V100.464" stroke="#0061FE" stroke-width="1.19581" stroke-linecap="round" stroke-linejoin="round"/>
<path d="M22.5742 96.1016H28.057C33.5386 96.1016 34.909 101.584 34.909 101.584H22.5742V96.1016Z" fill="white" stroke="#0061FE" stroke-width="1.19581" stroke-linecap="round" stroke-linejoin="round"/>
<path d="M14.7422 96.1016H20.225C25.7066 96.1016 27.077 101.584 27.077 101.584H14.7422V96.1016Z" fill="white" stroke="#0061FE" stroke-width="1.19581" stroke-linecap="round" stroke-linejoin="round"/>
<path d="M33.1587 72.4051C33.1055 72.8935 32.861 73.3408 32.4786 73.6492C32.0962 73.9576 31.6072 74.1018 31.1187 74.0503L19.2687 72.7675C18.7804 72.7143 18.333 72.4698 18.0247 72.0874C17.7163 71.7051 17.572 71.2161 17.6235 70.7275L19.7487 51.1075C19.8019 50.6192 20.0464 50.1718 20.4288 49.8635C20.8112 49.5551 21.3002 49.4109 21.7887 49.4623L23.2731 49.6231C23.3277 49.0333 23.4991 48.4603 23.7772 47.9373C24.0554 47.4144 24.4348 46.952 24.8933 46.577C25.3519 46.2021 25.8804 45.9221 26.4482 45.7534C27.016 45.5847 27.6117 45.5306 28.2006 45.5942C28.7894 45.6579 29.3598 45.8381 29.8784 46.1242C30.397 46.4104 30.8535 46.7969 31.2213 47.2612C31.5892 47.7254 31.861 48.2582 32.0209 48.8285C32.1809 49.3989 32.2258 49.9953 32.1531 50.5831L33.6387 50.7427C34.1271 50.7956 34.5745 51.0401 34.8828 51.4226C35.191 51.8051 35.3348 52.2943 35.2827 52.7827L33.1587 72.4051Z" fill="#DCE9FF" stroke="#0061FE" stroke-width="1.19581" stroke-linecap="round" stroke-linejoin="round"/>
<path d="M31.5262 66.9039C31.5264 66.3896 31.4252 65.8804 31.2285 65.4053C31.0318 64.9301 30.7434 64.4984 30.3797 64.1348C30.0161 63.7712 29.5844 63.4827 29.1093 63.286C28.6341 63.0893 28.1249 62.9881 27.6106 62.9883H21.457V70.8195H27.6106C28.6491 70.8195 29.6451 70.4069 30.3794 69.6726C31.1137 68.9383 31.5262 67.9424 31.5262 66.9039Z" fill="white" stroke="#0061FE" stroke-width="1.19581" stroke-linecap="round" stroke-linejoin="round"/>
<path d="M12.5085 50.6797V53.2669C12.656 55.7288 13.5124 58.0955 14.9745 60.0817C15.7543 61.0362 16.7462 61.7956 17.8711 62.2993C18.9961 62.803 20.2231 63.0372 21.4545 62.9833H23.6925C23.0107 64.1757 22.6521 65.5254 22.6521 66.8989C22.6521 68.2724 23.0107 69.6221 23.6925 70.8145H21.4581C19.2086 70.8986 16.9682 70.4858 14.8964 69.6056C12.8246 68.7253 10.9723 67.3992 9.47129 65.7217C6.57157 62.2562 4.88836 57.9355 4.67969 53.4217V50.6821" fill="white"/>
<path d="M12.5085 50.6797V53.2669C12.656 55.7288 13.5124 58.0955 14.9745 60.0817C15.7543 61.0362 16.7462 61.7956 17.8711 62.2993C18.9961 62.803 20.2231 63.0372 21.4545 62.9833H23.6925C23.0107 64.1757 22.6521 65.5254 22.6521 66.8989C22.6521 68.2724 23.0107 69.6221 23.6925 70.8145H21.4581C19.2086 70.8986 16.9682 70.4858 14.8964 69.6056C12.8246 68.7253 10.9723 67.3992 9.47129 65.7217C6.57157 62.2562 4.88836 57.9355 4.67969 53.4217V50.6821" stroke="#0061FE" stroke-width="1.19581" stroke-linecap="round" stroke-linejoin="round"/>
<path d="M4.67969 49.0062C4.67969 48.8622 4.67969 48.7182 4.69169 48.5742V51.2622L4.67969 51.2382V49.0062Z" fill="#0061FE" stroke="#0061FE" stroke-width="1.19581" stroke-linecap="round" stroke-linejoin="round"/>
<path d="M20.2969 40.882L21.1669 41.722C21.2854 41.8374 21.4264 41.9271 21.5812 41.9854C21.736 42.0437 21.9012 42.0694 22.0664 42.0609C22.2316 42.0523 22.3932 42.0097 22.5412 41.9356C22.6891 41.8616 22.8202 41.7578 22.9261 41.6308L25.0969 39.0256L27.6013 41.1724C27.766 41.3135 27.9658 41.4073 28.1796 41.4439C28.3933 41.4805 28.613 41.4585 28.8152 41.3802C29.0175 41.3019 29.1947 41.1703 29.3281 40.9993C29.4615 40.8283 29.5461 40.6244 29.5729 40.4092L30.1057 36.1348" stroke="#0061FE" stroke-width="1.19581" stroke-linecap="round" stroke-linejoin="round"/>
<path d="M8.89453 75.0328L14.2945 72.6328" stroke="#0061FE" stroke-width="1.19581" stroke-linecap="round" stroke-linejoin="round"/>
<path d="M22.576 4.20703C19.6133 4.20703 16.772 5.38395 14.6771 7.47888C12.5821 9.57381 11.4052 12.4152 11.4052 15.3778V17.6122C8.21561 17.6122 8.43401 23.1982 11.9632 23.1982H11.9728C12.7675 25.7434 14.4487 27.9191 16.711 29.3303C18.9733 30.7415 21.6667 31.2944 24.3021 30.8888C26.9374 30.4832 29.3398 29.1459 31.0731 27.1197C32.8063 25.0936 33.7554 22.513 33.748 19.8466V15.3778C33.748 13.9108 33.459 12.4581 32.8976 11.1027C32.3361 9.74729 31.5132 8.51578 30.4757 7.47846C29.4383 6.44114 28.2067 5.61833 26.8513 5.05701C25.4958 4.4957 24.0431 4.20687 22.576 4.20703Z" fill="white" stroke="#0061FE" stroke-width="1.19581" stroke-linecap="round" stroke-linejoin="round"/>
<path d="M19.2227 17.8909C19.2227 18.0744 19.2588 18.256 19.329 18.4255C19.3992 18.5949 19.5021 18.7489 19.6318 18.8786C19.7615 19.0083 19.9155 19.1112 20.0849 19.1814C20.2544 19.2516 20.436 19.2877 20.6195 19.2877C20.8029 19.2877 20.9845 19.2516 21.154 19.1814C21.3235 19.1112 21.4774 19.0083 21.6071 18.8786C21.7368 18.7489 21.8397 18.5949 21.9099 18.4255C21.9801 18.256 22.0163 18.0744 22.0163 17.8909C22.0163 17.7075 21.9801 17.5259 21.9099 17.3564C21.8397 17.1869 21.7368 17.033 21.6071 16.9033C21.4774 16.7735 21.3235 16.6707 21.154 16.6005C20.9845 16.5303 20.8029 16.4941 20.6195 16.4941C20.436 16.4941 20.2544 16.5303 20.0849 16.6005C19.9155 16.6707 19.7615 16.7735 19.6318 16.9033C19.5021 17.033 19.3992 17.1869 19.329 17.3564C19.2588 17.5259 19.2227 17.7075 19.2227 17.8909Z" fill="#0061FE"/>
<path d="M30.3952 17.8909C30.3952 18.1671 30.3133 18.4371 30.1599 18.6667C30.0065 18.8964 29.7885 19.0754 29.5334 19.1812C29.2784 19.287 28.9976 19.3148 28.7267 19.2611C28.4559 19.2074 28.207 19.0746 28.0115 18.8795C27.8161 18.6844 27.6829 18.4357 27.6287 18.1649C27.5745 17.8941 27.6018 17.6133 27.7072 17.3581C27.8126 17.1028 27.9912 16.8845 28.2206 16.7307C28.45 16.5769 28.7198 16.4946 28.996 16.4941C29.1796 16.4937 29.3616 16.5295 29.5314 16.5995C29.7012 16.6695 29.8556 16.7723 29.9856 16.9021C30.1155 17.0318 30.2186 17.186 30.2889 17.3557C30.3592 17.5254 30.3953 17.7073 30.3952 17.8909Z" fill="#0061FE"/>
<path d="M19.2266 22.3594C19.2266 22.5803 19.1611 22.7963 19.0383 22.9801C18.9155 23.1638 18.7411 23.307 18.5369 23.3915C18.3328 23.4761 18.1081 23.4982 17.8914 23.4551C17.6747 23.412 17.4757 23.3056 17.3194 23.1494C17.1632 22.9931 17.0568 22.7941 17.0137 22.5773C16.9705 22.3606 16.9927 22.136 17.0772 21.9319C17.1618 21.7277 17.305 21.5532 17.4887 21.4305C17.6724 21.3077 17.8884 21.2422 18.1094 21.2422C18.4057 21.2422 18.6899 21.3599 18.8994 21.5694C19.1089 21.7789 19.2266 22.0631 19.2266 22.3594Z" fill="#DCE9FF"/>
<path d="M22.0195 24.207C22.6857 24.7975 23.5225 25.1606 24.4088 25.2437C25.2951 25.3267 26.1849 25.1255 26.9491 24.669C27.1795 24.5328 27.3987 24.3783 27.6043 24.207" stroke="#0061FE" stroke-width="1.19581" stroke-linecap="round" stroke-linejoin="round"/>
<path d="M14.7424 18.7288C14.7424 17.5436 15.2132 16.407 16.0513 15.5689C16.8893 14.7309 18.026 14.26 19.2112 14.26H33.7696C34.0449 14.2621 34.3173 14.2027 34.5668 14.0862C34.8163 13.9697 35.0366 13.799 35.2118 13.5866C35.387 13.3741 35.5126 13.1253 35.5795 12.8582C35.6464 12.591 35.6528 12.3124 35.5984 12.0424C34.922 8.65091 33.0069 5.6328 30.2263 3.57649C27.4458 1.52017 23.9991 0.57304 20.5582 0.919736C17.1173 1.26643 13.9288 2.88211 11.6144 5.45178C9.2999 8.02146 8.02535 11.361 8.03917 14.8192V31.1956C8.04161 31.4794 8.10825 31.7588 8.2341 32.0131C8.35995 32.2674 8.54175 32.4899 8.76586 32.6639C8.98996 32.8379 9.25056 32.9589 9.5281 33.0178C9.80563 33.0767 10.0929 33.072 10.3684 33.004C13.1632 32.3368 14.4004 30.3712 14.7412 27.6664L14.7424 18.7288Z" fill="white" stroke="#0061FE" stroke-width="1.19581" stroke-linecap="round" stroke-linejoin="round"/>
<path d="M14.7424 18.7288C14.7424 17.5436 15.2132 16.407 16.0513 15.5689C16.8893 14.7309 18.026 14.26 19.2112 14.26H33.7696C34.0449 14.2621 34.3173 14.2027 34.5668 14.0862C34.8163 13.9697 35.0366 13.799 35.2118 13.5866C35.387 13.3741 35.5126 13.1253 35.5795 12.8582C35.6464 12.591 35.6528 12.3124 35.5984 12.0424C34.922 8.65091 33.0069 5.6328 30.2263 3.57649C27.4458 1.52017 23.9991 0.57304 20.5582 0.919736C17.1173 1.26643 13.9288 2.88211 11.6144 5.45178C9.2999 8.02146 8.02535 11.361 8.03917 14.8192V31.1956C8.04161 31.4794 8.10825 31.7588 8.2341 32.0131C8.35995 32.2674 8.54175 32.4899 8.76586 32.6639C8.98996 32.8379 9.25056 32.9589 9.5281 33.0178C9.80563 33.0767 10.0929 33.072 10.3684 33.004C13.1632 32.3368 14.4004 30.3712 14.7412 27.6664L14.7424 18.7288Z" stroke="#0061FE" stroke-width="1.19581" stroke-linejoin="round"/>
<path d="M22.5586 14.2586V9.79102" stroke="#0061FE" stroke-width="1.19581" stroke-linecap="round" stroke-linejoin="round"/>
<path d="M18.082 14.4134L18.0928 9.79102" stroke="#0061FE" stroke-width="1.19581" stroke-linecap="round" stroke-linejoin="round"/>
<path d="M27.0273 14.2586V9.79102" stroke="#0061FE" stroke-width="1.19581" stroke-linecap="round" stroke-linejoin="round"/>
<path d="M31.5 14.2586V9.79102" stroke="#0061FE" stroke-width="1.19581" stroke-linecap="round" stroke-linejoin="round"/>
<path d="M25.0938 39.0352V46.2352" stroke="#0061FE" stroke-width="1.19581" stroke-linecap="round" stroke-linejoin="round"/>
</svg>
