<svg width="106" height="87" viewBox="0 0 106 87" fill="none" xmlns="http://www.w3.org/2000/svg">
<path d="M101 49.0002C101.001 41.8364 99.3983 34.7633 96.3097 28.2995C93.2211 21.8357 88.7248 16.1452 83.1507 11.6453C77.5765 7.14542 71.0658 3.95031 64.096 2.29427C57.1263 0.63823 49.8742 0.563267 42.8717 2.07488C35.8692 3.58649 29.2938 6.64634 23.6278 11.03C17.9618 15.4137 13.3489 21.01 10.1273 27.4086C6.90579 33.8072 5.15731 40.8457 5.01013 48.008C4.86296 55.1703 6.32082 62.2747 9.2768 68.8002H96.7232C99.5466 62.5814 101.005 55.8299 101 49.0002Z" fill="#EFF5FF"/>
<path d="M6.20312 68.7988H99.8031" stroke="#0061FE" stroke-width="1.19581" stroke-linecap="round" stroke-linejoin="round"/>
<path d="M0.800781 68.7988H3.80078" stroke="#0061FE" stroke-width="1.19581" stroke-linecap="round" stroke-linejoin="round"/>
<path d="M102.203 68.7988H105.203" stroke="#0061FE" stroke-width="1.19581" stroke-linecap="round" stroke-linejoin="round"/>
<path d="M22.1523 78.3307C22.1523 79.1913 25.3429 80.0166 31.0221 80.6252C36.7013 81.2337 44.4039 81.5755 52.4355 81.5755C60.4671 81.5755 68.1698 81.2337 73.849 80.6252C79.5282 80.0166 82.7187 79.1913 82.7187 78.3307C82.7187 77.4702 79.5282 76.6448 73.849 76.0363C68.1698 75.4278 60.4671 75.0859 52.4355 75.0859C44.4039 75.0859 36.7013 75.4278 31.0221 76.0363C25.3429 76.6448 22.1523 77.4702 22.1523 78.3307Z" fill="#DCE9FF"/>
<path d="M94.8829 65.6583C94.8826 64.7263 94.5121 63.8326 93.853 63.1738C93.1939 62.5149 92.3001 62.1447 91.3681 62.1447C90.8094 62.1481 90.2598 62.2864 89.7661 62.5479C89.5151 61.9897 89.1563 61.4866 88.7104 61.0673C88.2645 60.6481 87.7402 60.321 87.1676 60.1049C86.595 59.8887 85.9854 59.7877 85.3737 59.8076C84.762 59.8276 84.1602 59.9681 83.6029 60.2211C82.9196 58.8111 81.7829 57.6713 80.3747 56.9842C78.9666 56.297 77.3686 56.1024 75.8367 56.4314C74.3048 56.7605 72.9277 57.5941 71.9259 58.7989C70.9242 60.0036 70.3558 61.5097 70.3117 63.0759C69.8908 62.69 69.3821 62.4126 68.8298 62.2678C68.2774 62.123 67.6981 62.1152 67.142 62.245C66.5859 62.3747 66.0699 62.6382 65.6387 63.0126C65.2075 63.3869 64.8741 63.8608 64.6675 64.3931C64.4609 64.9255 64.3873 65.5002 64.453 66.0674C64.5188 66.6346 64.722 67.1772 65.0449 67.6482C65.3679 68.1191 65.8008 68.5041 66.3062 68.7699C66.8117 69.0356 67.3743 69.174 67.9453 69.1731H91.3729C91.8399 69.1945 92.3063 69.1182 92.7422 68.9491C93.178 68.7799 93.5738 68.5217 93.9041 68.1909C94.2345 67.8601 94.4922 67.464 94.6607 67.0279C94.8293 66.5918 94.9049 66.1253 94.8829 65.6583Z" fill="#DCE9FF" stroke="#0061FE" stroke-width="1.19581" stroke-linecap="round" stroke-linejoin="round"/>
<path d="M40.2432 14.15C40.2429 13.1411 39.8423 12.1736 39.1293 11.4597C38.4164 10.7458 37.4493 10.344 36.4404 10.3424C35.9711 10.3447 35.5063 10.4347 35.07 10.6076C34.8359 9.11991 34.0783 7.76465 32.9336 6.78598C31.7889 5.8073 30.3324 5.26953 28.8264 5.26953C27.3204 5.26953 25.8638 5.8073 24.7191 6.78598C23.5745 7.76465 22.8169 9.11991 22.5828 10.6076C22.0618 10.4058 21.5027 10.3212 20.9453 10.36C20.3879 10.3987 19.8459 10.5598 19.3579 10.8318C18.8698 11.1038 18.4477 11.48 18.1215 11.9337C17.7953 12.3873 17.5731 12.9072 17.4707 13.4565C17.3683 14.0058 17.3881 14.5709 17.5289 15.1116C17.6696 15.6523 17.9278 16.1553 18.285 16.585C18.6423 17.0146 19.0898 17.3602 19.5957 17.5972C20.1017 17.8343 20.6537 17.9569 21.2124 17.9564H36.4404C37.4492 17.9552 38.4163 17.5536 39.1292 16.8399C39.8422 16.1263 40.2429 15.1588 40.2432 14.15Z" fill="white" stroke="#0061FE" stroke-width="1.19581" stroke-linecap="round" stroke-linejoin="round"/>
<path d="M75.0409 38.1389V24.8585C75.0409 24.3202 74.8271 23.804 74.4466 23.4232C74.0661 23.0425 73.55 22.8284 73.0117 22.8281H67.3273C66.7889 22.8284 66.2726 23.0425 65.8919 23.4232C65.5112 23.8039 65.2972 24.3201 65.2969 24.8585V29.7029L75.0409 38.1389Z" fill="white" stroke="#0061FE" stroke-width="1.19581" stroke-linecap="round" stroke-linejoin="round"/>
<path d="M77.5418 77.5322C77.5418 77.8823 77.4027 78.2181 77.1552 78.4656C76.9076 78.7132 76.5719 78.8522 76.2218 78.8522H30.1442C29.7941 78.8522 29.4584 78.7132 29.2108 78.4656C28.9633 78.2181 28.8242 77.8823 28.8242 77.5322V49.9718L53.1818 28.8398L77.5418 49.967V77.5322Z" fill="white"/>
<path d="M77.5418 77.5322C77.5418 77.8823 77.4027 78.2181 77.1552 78.4656C76.9076 78.7132 76.5719 78.8522 76.2218 78.8522H30.1442C29.7941 78.8522 29.4584 78.7132 29.2108 78.4656C28.9633 78.2181 28.8242 77.8823 28.8242 77.5322V49.9718L53.1818 28.8398L77.5418 49.967V77.5322Z" stroke="#0061FE" stroke-width="1.19581" stroke-linecap="round" stroke-linejoin="round"/>
<path d="M26.4579 50.8423C25.7101 50.8424 24.9803 50.613 24.3671 50.185C23.7539 49.7571 23.2867 49.1512 23.0288 48.4494C22.7709 47.7475 22.7346 46.9833 22.9249 46.2601C23.1151 45.537 23.5228 44.8896 24.0927 44.4055L50.8167 21.2635C51.4761 20.6989 52.3156 20.3887 53.1837 20.3887C54.0518 20.3887 54.8913 20.6989 55.5507 21.2635L82.2831 44.4055C82.6563 44.7141 82.9644 45.0938 83.1895 45.5225C83.4147 45.9512 83.5524 46.4203 83.5946 46.9027C83.6368 47.3851 83.5828 47.8711 83.4355 48.3324C83.2883 48.7937 83.0509 49.2211 82.737 49.5899C82.4231 49.9586 82.0391 50.2613 81.6072 50.4803C81.1754 50.6993 80.7043 50.8303 80.2213 50.8657C79.7384 50.901 79.2533 50.84 78.7941 50.6863C78.3349 50.5325 77.9109 50.289 77.5467 49.9699L53.1843 28.8403L28.8243 49.9723C28.1641 50.5346 27.3251 50.8431 26.4579 50.8423Z" fill="#DCE9FF"/>
<path d="M67.7344 22.829H72.6064V19.9874C72.6064 19.4491 72.3926 18.9329 72.0121 18.5521C71.6316 18.1714 71.1155 17.9573 70.5772 17.957H69.7648C69.2264 17.9573 68.7101 18.1714 68.3294 18.5521C67.9487 18.9328 67.7347 19.449 67.7344 19.9874V22.829Z" fill="#DCE9FF"/>
<path d="M67.7344 22.829H72.6064V19.9874C72.6064 19.4491 72.3926 18.9329 72.0121 18.5521C71.6316 18.1714 71.1155 17.9573 70.5772 17.957H69.7648C69.2264 17.9573 68.7101 18.1714 68.3294 18.5521C67.9487 18.9328 67.7347 19.449 67.7344 19.9874V22.829Z" stroke="#0061FE" stroke-width="1.19581" stroke-linecap="round" stroke-linejoin="round"/>
<path d="M62.5831 52.9076H57.6343V47.9588C57.6343 47.6337 57.5702 47.3119 57.4458 47.0116C57.3214 46.7113 57.139 46.4385 56.9091 46.2087C56.6792 45.9789 56.4063 45.7967 56.106 45.6724C55.8056 45.5481 55.4837 45.4842 55.1587 45.4844H51.1987C50.5424 45.4844 49.9131 45.7451 49.449 46.2091C48.985 46.6732 48.7243 47.3025 48.7243 47.9588V52.9076H43.7791C43.123 52.9076 42.4939 53.1681 42.0298 53.6319C41.5658 54.0957 41.305 54.7247 41.3047 55.3808V59.3408C41.3047 59.997 41.5654 60.6264 42.0294 61.0904C42.4935 61.5545 43.1228 61.8152 43.7791 61.8152H48.7267V66.7592C48.7262 67.0842 48.7898 67.4062 48.9138 67.7066C49.0378 68.0071 49.2197 68.2802 49.4493 68.5103C49.6789 68.7404 49.9515 68.9231 50.2517 69.0478C50.5518 69.1725 50.8736 69.2369 51.1987 69.2372H55.1587C55.484 69.2373 55.8062 69.1733 56.1068 69.0488C56.4074 68.9243 56.6805 68.7418 56.9104 68.5116C57.1403 68.2814 57.3226 68.0082 57.4469 67.7075C57.5711 67.4068 57.6348 67.0845 57.6343 66.7592V61.814H62.5831C63.2393 61.814 63.8687 61.5533 64.3327 61.0892C64.7968 60.6252 65.0575 59.9958 65.0575 59.3396V55.3796C65.0568 54.7237 64.7959 54.095 64.3319 53.6315C63.8679 53.1679 63.2389 52.9076 62.5831 52.9076Z" fill="#DCE9FF"/>
<path d="M62.5831 52.9076H57.6343V47.9588C57.6343 47.6337 57.5702 47.3119 57.4458 47.0116C57.3214 46.7113 57.139 46.4385 56.9091 46.2087C56.6792 45.9789 56.4063 45.7967 56.106 45.6724C55.8056 45.5481 55.4837 45.4842 55.1587 45.4844H51.1987C50.5424 45.4844 49.9131 45.7451 49.449 46.2091C48.985 46.6732 48.7243 47.3025 48.7243 47.9588V52.9076H43.7791C43.123 52.9076 42.4939 53.1681 42.0298 53.6319C41.5658 54.0957 41.305 54.7247 41.3047 55.3808V59.3408C41.3047 59.997 41.5654 60.6264 42.0294 61.0904C42.4935 61.5545 43.1228 61.8152 43.7791 61.8152H48.7267V66.7592C48.7262 67.0842 48.7898 67.4062 48.9138 67.7066C49.0378 68.0071 49.2197 68.2802 49.4493 68.5103C49.6789 68.7404 49.9515 68.9231 50.2517 69.0478C50.5518 69.1725 50.8736 69.2369 51.1987 69.2372H55.1587C55.484 69.2373 55.8062 69.1733 56.1068 69.0488C56.4074 68.9243 56.6805 68.7418 56.9104 68.5116C57.1403 68.2814 57.3226 68.0082 57.4469 67.7075C57.5711 67.4068 57.6348 67.0845 57.6343 66.7592V61.814H62.5831C63.2393 61.814 63.8687 61.5533 64.3327 61.0892C64.7968 60.6252 65.0575 59.9958 65.0575 59.3396V55.3796C65.0568 54.7237 64.7959 54.095 64.3319 53.6315C63.8679 53.1679 63.2389 52.9076 62.5831 52.9076V52.9076Z" stroke="#0061FE" stroke-width="1.19581" stroke-linecap="round" stroke-linejoin="round"/>
<path d="M26.4579 50.8423C25.7101 50.8424 24.9803 50.613 24.3671 50.185C23.7539 49.7571 23.2867 49.1512 23.0288 48.4493C22.7709 47.7475 22.7346 46.9833 22.9249 46.2601C23.1151 45.537 23.5228 44.8896 24.0927 44.4055L50.8167 21.2635C51.4761 20.6989 52.3156 20.3887 53.1837 20.3887C54.0518 20.3887 54.8913 20.6989 55.5507 21.2635L82.2831 44.4055C82.6563 44.7141 82.9644 45.0938 83.1895 45.5225C83.4147 45.9512 83.5524 46.4203 83.5946 46.9027C83.6368 47.3851 83.5828 47.8711 83.4355 48.3324C83.2883 48.7937 83.0509 49.2211 82.737 49.5899C82.4231 49.9586 82.0391 50.2613 81.6072 50.4803C81.1754 50.6993 80.7043 50.8303 80.2213 50.8657C79.7384 50.901 79.2533 50.84 78.7941 50.6863C78.3349 50.5325 77.9109 50.289 77.5467 49.9699L53.1843 28.8403L28.8243 49.9723C28.1641 50.5346 27.3251 50.8431 26.4579 50.8423V50.8423Z" stroke="#0061FE" stroke-width="1.19581" stroke-linecap="round" stroke-linejoin="round"/>
<path d="M38.0257 82.8476C38.0303 82.2442 37.8784 81.6499 37.5846 81.1229C37.2909 80.5958 36.8655 80.1539 36.35 79.8404C35.8344 79.5269 35.2463 79.3524 34.6432 79.3341C34.0401 79.3158 33.4425 79.4543 32.9089 79.736C32.6577 79.1768 32.2984 78.6728 31.8517 78.2529C31.4051 77.8331 30.8798 77.5056 30.3062 77.2894C29.7326 77.0732 29.1219 76.9724 28.5092 76.993C27.8965 77.0135 27.294 77.155 26.7361 77.4092C26.0507 76.0026 24.9137 74.8664 23.5067 74.1818C22.0997 73.4973 20.5039 73.304 18.9742 73.6329C17.4445 73.9617 16.0691 74.7936 15.0677 75.9959C14.0663 77.1981 13.4966 78.7012 13.4497 80.2652C13.0289 79.879 12.5202 79.6013 11.9678 79.4563C11.4154 79.3112 10.8359 79.3032 10.2797 79.4328C9.72342 79.5625 9.20722 79.8259 8.77585 80.2002C8.34448 80.5746 8.01099 81.0485 7.8043 81.581C7.59761 82.1134 7.52397 82.6883 7.58979 83.2556C7.6556 83.823 7.85886 84.3657 8.18194 84.8367C8.50503 85.3077 8.93817 85.6927 9.44377 85.9584C9.94938 86.224 10.5122 86.3623 11.0833 86.3612H34.5169C34.9838 86.3824 35.4499 86.306 35.8855 86.1368C36.3211 85.9677 36.7167 85.7096 37.0469 85.3789C37.3771 85.0482 37.6347 84.6523 37.8033 84.2165C37.9718 83.7806 38.0476 83.3144 38.0257 82.8476Z" fill="#DCE9FF" stroke="#0061FE" stroke-width="1.19581" stroke-linecap="round" stroke-linejoin="round"/>
</svg>
